<?xml version="1.0" encoding="utf-8"?>
<svg xmlns="http://www.w3.org/2000/svg" xmlns:xlink="http://www.w3.org/1999/xlink" width="600" height="400" viewBox="0 0 2400 1600">
<defs>
  <clipPath id="clip450">
    <rect x="0" y="0" width="2400" height="1600"/>
  </clipPath>
</defs>
<path clip-path="url(#clip450)" d="M0 1600 L2400 1600 L2400 0 L0 0  Z" fill="#ffffff" fill-rule="evenodd" fill-opacity="1"/>
<defs>
  <clipPath id="clip451">
    <rect x="480" y="0" width="1681" height="1600"/>
  </clipPath>
</defs>
<path clip-path="url(#clip450)" d="M202.177 1486.45 L2352.76 1486.45 L2352.76 106.192 L202.177 106.192  Z" fill="#ffffff" fill-rule="evenodd" fill-opacity="1"/>
<defs>
  <clipPath id="clip452">
    <rect x="202" y="106" width="2152" height="1381"/>
  </clipPath>
</defs>
<polyline clip-path="url(#clip452)" style="stroke:#000000; stroke-linecap:round; stroke-linejoin:round; stroke-width:2; stroke-opacity:0.1; fill:none" points="250.893,1486.45 250.893,106.192 "/>
<polyline clip-path="url(#clip452)" style="stroke:#000000; stroke-linecap:round; stroke-linejoin:round; stroke-width:2; stroke-opacity:0.1; fill:none" points="858.333,1486.45 858.333,106.192 "/>
<polyline clip-path="url(#clip452)" style="stroke:#000000; stroke-linecap:round; stroke-linejoin:round; stroke-width:2; stroke-opacity:0.1; fill:none" points="1465.77,1486.45 1465.77,106.192 "/>
<polyline clip-path="url(#clip452)" style="stroke:#000000; stroke-linecap:round; stroke-linejoin:round; stroke-width:2; stroke-opacity:0.1; fill:none" points="2073.21,1486.45 2073.21,106.192 "/>
<polyline clip-path="url(#clip450)" style="stroke:#000000; stroke-linecap:round; stroke-linejoin:round; stroke-width:4; stroke-opacity:1; fill:none" points="202.177,1486.45 2352.76,1486.45 "/>
<polyline clip-path="url(#clip450)" style="stroke:#000000; stroke-linecap:round; stroke-linejoin:round; stroke-width:4; stroke-opacity:1; fill:none" points="250.893,1486.45 250.893,1467.55 "/>
<polyline clip-path="url(#clip450)" style="stroke:#000000; stroke-linecap:round; stroke-linejoin:round; stroke-width:4; stroke-opacity:1; fill:none" points="858.333,1486.45 858.333,1467.55 "/>
<polyline clip-path="url(#clip450)" style="stroke:#000000; stroke-linecap:round; stroke-linejoin:round; stroke-width:4; stroke-opacity:1; fill:none" points="1465.77,1486.45 1465.77,1467.55 "/>
<polyline clip-path="url(#clip450)" style="stroke:#000000; stroke-linecap:round; stroke-linejoin:round; stroke-width:4; stroke-opacity:1; fill:none" points="2073.21,1486.45 2073.21,1467.55 "/>
<path clip-path="url(#clip450)" d="M250.893 1517.37 Q247.282 1517.37 245.454 1520.93 Q243.648 1524.47 243.648 1531.6 Q243.648 1538.71 245.454 1542.27 Q247.282 1545.82 250.893 1545.82 Q254.528 1545.82 256.333 1542.27 Q258.162 1538.71 258.162 1531.6 Q258.162 1524.47 256.333 1520.93 Q254.528 1517.37 250.893 1517.37 M250.893 1513.66 Q256.704 1513.66 259.759 1518.27 Q262.838 1522.85 262.838 1531.6 Q262.838 1540.33 259.759 1544.94 Q256.704 1549.52 250.893 1549.52 Q245.083 1549.52 242.005 1544.94 Q238.949 1540.33 238.949 1531.6 Q238.949 1522.85 242.005 1518.27 Q245.083 1513.66 250.893 1513.66 Z" fill="#000000" fill-rule="nonzero" fill-opacity="1" /><path clip-path="url(#clip450)" d="M833.032 1514.29 L851.389 1514.29 L851.389 1518.22 L837.315 1518.22 L837.315 1526.7 Q838.333 1526.35 839.352 1526.19 Q840.37 1526 841.389 1526 Q847.176 1526 850.555 1529.17 Q853.935 1532.34 853.935 1537.76 Q853.935 1543.34 850.463 1546.44 Q846.99 1549.52 840.671 1549.52 Q838.495 1549.52 836.227 1549.15 Q833.981 1548.78 831.574 1548.04 L831.574 1543.34 Q833.657 1544.47 835.879 1545.03 Q838.102 1545.58 840.578 1545.58 Q844.583 1545.58 846.921 1543.48 Q849.259 1541.37 849.259 1537.76 Q849.259 1534.15 846.921 1532.04 Q844.583 1529.94 840.578 1529.94 Q838.703 1529.94 836.828 1530.35 Q834.977 1530.77 833.032 1531.65 L833.032 1514.29 Z" fill="#000000" fill-rule="nonzero" fill-opacity="1" /><path clip-path="url(#clip450)" d="M873.148 1517.37 Q869.537 1517.37 867.708 1520.93 Q865.902 1524.47 865.902 1531.6 Q865.902 1538.71 867.708 1542.27 Q869.537 1545.82 873.148 1545.82 Q876.782 1545.82 878.587 1542.27 Q880.416 1538.71 880.416 1531.6 Q880.416 1524.47 878.587 1520.93 Q876.782 1517.37 873.148 1517.37 M873.148 1513.66 Q878.958 1513.66 882.013 1518.27 Q885.092 1522.85 885.092 1531.6 Q885.092 1540.33 882.013 1544.94 Q878.958 1549.52 873.148 1549.52 Q867.338 1549.52 864.259 1544.94 Q861.203 1540.33 861.203 1531.6 Q861.203 1522.85 864.259 1518.27 Q867.338 1513.66 873.148 1513.66 Z" fill="#000000" fill-rule="nonzero" fill-opacity="1" /><path clip-path="url(#clip450)" d="M1425.38 1544.91 L1433.02 1544.91 L1433.02 1518.55 L1424.71 1520.21 L1424.71 1515.95 L1432.97 1514.29 L1437.65 1514.29 L1437.65 1544.91 L1445.29 1544.91 L1445.29 1548.85 L1425.38 1548.85 L1425.38 1544.91 Z" fill="#000000" fill-rule="nonzero" fill-opacity="1" /><path clip-path="url(#clip450)" d="M1464.73 1517.37 Q1461.12 1517.37 1459.29 1520.93 Q1457.49 1524.47 1457.49 1531.6 Q1457.49 1538.71 1459.29 1542.27 Q1461.12 1545.82 1464.73 1545.82 Q1468.37 1545.82 1470.17 1542.27 Q1472 1538.71 1472 1531.6 Q1472 1524.47 1470.17 1520.93 Q1468.37 1517.37 1464.73 1517.37 M1464.73 1513.66 Q1470.54 1513.66 1473.6 1518.27 Q1476.68 1522.85 1476.68 1531.6 Q1476.68 1540.33 1473.6 1544.94 Q1470.54 1549.52 1464.73 1549.52 Q1458.92 1549.52 1455.84 1544.94 Q1452.79 1540.33 1452.79 1531.6 Q1452.79 1522.85 1455.84 1518.27 Q1458.92 1513.66 1464.73 1513.66 Z" fill="#000000" fill-rule="nonzero" fill-opacity="1" /><path clip-path="url(#clip450)" d="M1494.89 1517.37 Q1491.28 1517.37 1489.45 1520.93 Q1487.65 1524.47 1487.65 1531.6 Q1487.65 1538.71 1489.45 1542.27 Q1491.28 1545.82 1494.89 1545.82 Q1498.53 1545.82 1500.33 1542.27 Q1502.16 1538.71 1502.16 1531.6 Q1502.16 1524.47 1500.33 1520.93 Q1498.53 1517.37 1494.89 1517.37 M1494.89 1513.66 Q1500.7 1513.66 1503.76 1518.27 Q1506.84 1522.85 1506.84 1531.6 Q1506.84 1540.33 1503.76 1544.94 Q1500.7 1549.52 1494.89 1549.52 Q1489.08 1549.52 1486 1544.94 Q1482.95 1540.33 1482.95 1531.6 Q1482.95 1522.85 1486 1518.27 Q1489.08 1513.66 1494.89 1513.66 Z" fill="#000000" fill-rule="nonzero" fill-opacity="1" /><path clip-path="url(#clip450)" d="M2032.82 1544.91 L2040.46 1544.91 L2040.46 1518.55 L2032.15 1520.21 L2032.15 1515.95 L2040.41 1514.29 L2045.09 1514.29 L2045.09 1544.91 L2052.73 1544.91 L2052.73 1548.85 L2032.82 1548.85 L2032.82 1544.91 Z" fill="#000000" fill-rule="nonzero" fill-opacity="1" /><path clip-path="url(#clip450)" d="M2062.22 1514.29 L2080.57 1514.29 L2080.57 1518.22 L2066.5 1518.22 L2066.5 1526.7 Q2067.52 1526.35 2068.54 1526.19 Q2069.55 1526 2070.57 1526 Q2076.36 1526 2079.74 1529.17 Q2083.12 1532.34 2083.12 1537.76 Q2083.12 1543.34 2079.65 1546.44 Q2076.18 1549.52 2069.86 1549.52 Q2067.68 1549.52 2065.41 1549.15 Q2063.17 1548.78 2060.76 1548.04 L2060.76 1543.34 Q2062.84 1544.47 2065.06 1545.03 Q2067.29 1545.58 2069.76 1545.58 Q2073.77 1545.58 2076.11 1543.48 Q2078.44 1541.37 2078.44 1537.76 Q2078.44 1534.15 2076.11 1532.04 Q2073.77 1529.94 2069.76 1529.94 Q2067.89 1529.94 2066.01 1530.35 Q2064.16 1530.77 2062.22 1531.65 L2062.22 1514.29 Z" fill="#000000" fill-rule="nonzero" fill-opacity="1" /><path clip-path="url(#clip450)" d="M2102.33 1517.37 Q2098.72 1517.37 2096.89 1520.93 Q2095.09 1524.47 2095.09 1531.6 Q2095.09 1538.71 2096.89 1542.27 Q2098.72 1545.82 2102.33 1545.82 Q2105.97 1545.82 2107.77 1542.27 Q2109.6 1538.71 2109.6 1531.6 Q2109.6 1524.47 2107.77 1520.93 Q2105.97 1517.37 2102.33 1517.37 M2102.33 1513.66 Q2108.14 1513.66 2111.2 1518.27 Q2114.28 1522.85 2114.28 1531.6 Q2114.28 1540.33 2111.2 1544.94 Q2108.14 1549.52 2102.33 1549.52 Q2096.52 1549.52 2093.44 1544.94 Q2090.39 1540.33 2090.39 1531.6 Q2090.39 1522.85 2093.44 1518.27 Q2096.52 1513.66 2102.33 1513.66 Z" fill="#000000" fill-rule="nonzero" fill-opacity="1" /><polyline clip-path="url(#clip452)" style="stroke:#000000; stroke-linecap:round; stroke-linejoin:round; stroke-width:2; stroke-opacity:0.1; fill:none" points="202.177,1447.38 2352.76,1447.38 "/>
<polyline clip-path="url(#clip452)" style="stroke:#000000; stroke-linecap:round; stroke-linejoin:round; stroke-width:2; stroke-opacity:0.1; fill:none" points="202.177,1155.44 2352.76,1155.44 "/>
<polyline clip-path="url(#clip452)" style="stroke:#000000; stroke-linecap:round; stroke-linejoin:round; stroke-width:2; stroke-opacity:0.1; fill:none" points="202.177,863.503 2352.76,863.503 "/>
<polyline clip-path="url(#clip452)" style="stroke:#000000; stroke-linecap:round; stroke-linejoin:round; stroke-width:2; stroke-opacity:0.1; fill:none" points="202.177,571.562 2352.76,571.562 "/>
<polyline clip-path="url(#clip452)" style="stroke:#000000; stroke-linecap:round; stroke-linejoin:round; stroke-width:2; stroke-opacity:0.1; fill:none" points="202.177,279.621 2352.76,279.621 "/>
<polyline clip-path="url(#clip450)" style="stroke:#000000; stroke-linecap:round; stroke-linejoin:round; stroke-width:4; stroke-opacity:1; fill:none" points="202.177,1486.45 202.177,106.192 "/>
<polyline clip-path="url(#clip450)" style="stroke:#000000; stroke-linecap:round; stroke-linejoin:round; stroke-width:4; stroke-opacity:1; fill:none" points="202.177,1447.38 221.074,1447.38 "/>
<polyline clip-path="url(#clip450)" style="stroke:#000000; stroke-linecap:round; stroke-linejoin:round; stroke-width:4; stroke-opacity:1; fill:none" points="202.177,1155.44 221.074,1155.44 "/>
<polyline clip-path="url(#clip450)" style="stroke:#000000; stroke-linecap:round; stroke-linejoin:round; stroke-width:4; stroke-opacity:1; fill:none" points="202.177,863.503 221.074,863.503 "/>
<polyline clip-path="url(#clip450)" style="stroke:#000000; stroke-linecap:round; stroke-linejoin:round; stroke-width:4; stroke-opacity:1; fill:none" points="202.177,571.562 221.074,571.562 "/>
<polyline clip-path="url(#clip450)" style="stroke:#000000; stroke-linecap:round; stroke-linejoin:round; stroke-width:4; stroke-opacity:1; fill:none" points="202.177,279.621 221.074,279.621 "/>
<path clip-path="url(#clip450)" d="M154.232 1433.18 Q150.621 1433.18 148.793 1436.75 Q146.987 1440.29 146.987 1447.42 Q146.987 1454.53 148.793 1458.09 Q150.621 1461.63 154.232 1461.63 Q157.867 1461.63 159.672 1458.09 Q161.501 1454.53 161.501 1447.42 Q161.501 1440.29 159.672 1436.75 Q157.867 1433.18 154.232 1433.18 M154.232 1429.48 Q160.042 1429.48 163.098 1434.09 Q166.177 1438.67 166.177 1447.42 Q166.177 1456.15 163.098 1460.75 Q160.042 1465.34 154.232 1465.34 Q148.422 1465.34 145.343 1460.75 Q142.288 1456.15 142.288 1447.42 Q142.288 1438.67 145.343 1434.09 Q148.422 1429.48 154.232 1429.48 Z" fill="#000000" fill-rule="nonzero" fill-opacity="1" /><path clip-path="url(#clip450)" d="M57.7745 1168.79 L74.0939 1168.79 L74.0939 1172.72 L52.1495 1172.72 L52.1495 1168.79 Q54.8115 1166.03 59.3949 1161.4 Q64.0013 1156.75 65.1819 1155.41 Q67.4272 1152.89 68.3068 1151.15 Q69.2096 1149.39 69.2096 1147.7 Q69.2096 1144.95 67.2652 1143.21 Q65.3439 1141.47 62.2421 1141.47 Q60.043 1141.47 57.5893 1142.24 Q55.1588 1143 52.381 1144.55 L52.381 1139.83 Q55.2051 1138.7 57.6588 1138.12 Q60.1124 1137.54 62.1495 1137.54 Q67.5198 1137.54 70.7142 1140.22 Q73.9087 1142.91 73.9087 1147.4 Q73.9087 1149.53 73.0985 1151.45 Q72.3115 1153.35 70.205 1155.94 Q69.6263 1156.61 66.5245 1159.83 Q63.4226 1163.02 57.7745 1168.79 Z" fill="#000000" fill-rule="nonzero" fill-opacity="1" /><path clip-path="url(#clip450)" d="M93.9086 1141.24 Q90.2975 1141.24 88.4688 1144.81 Q86.6632 1148.35 86.6632 1155.48 Q86.6632 1162.58 88.4688 1166.15 Q90.2975 1169.69 93.9086 1169.69 Q97.5428 1169.69 99.3483 1166.15 Q101.177 1162.58 101.177 1155.48 Q101.177 1148.35 99.3483 1144.81 Q97.5428 1141.24 93.9086 1141.24 M93.9086 1137.54 Q99.7187 1137.54 102.774 1142.14 Q105.853 1146.73 105.853 1155.48 Q105.853 1164.2 102.774 1168.81 Q99.7187 1173.39 93.9086 1173.39 Q88.0984 1173.39 85.0197 1168.81 Q81.9642 1164.2 81.9642 1155.48 Q81.9642 1146.73 85.0197 1142.14 Q88.0984 1137.54 93.9086 1137.54 Z" fill="#000000" fill-rule="nonzero" fill-opacity="1" /><path clip-path="url(#clip450)" d="M124.07 1141.24 Q120.459 1141.24 118.631 1144.81 Q116.825 1148.35 116.825 1155.48 Q116.825 1162.58 118.631 1166.15 Q120.459 1169.69 124.07 1169.69 Q127.705 1169.69 129.51 1166.15 Q131.339 1162.58 131.339 1155.48 Q131.339 1148.35 129.51 1144.81 Q127.705 1141.24 124.07 1141.24 M124.07 1137.54 Q129.881 1137.54 132.936 1142.14 Q136.015 1146.73 136.015 1155.48 Q136.015 1164.2 132.936 1168.81 Q129.881 1173.39 124.07 1173.39 Q118.26 1173.39 115.182 1168.81 Q112.126 1164.2 112.126 1155.48 Q112.126 1146.73 115.182 1142.14 Q118.26 1137.54 124.07 1137.54 Z" fill="#000000" fill-rule="nonzero" fill-opacity="1" /><path clip-path="url(#clip450)" d="M154.232 1141.24 Q150.621 1141.24 148.793 1144.81 Q146.987 1148.35 146.987 1155.48 Q146.987 1162.58 148.793 1166.15 Q150.621 1169.69 154.232 1169.69 Q157.867 1169.69 159.672 1166.15 Q161.501 1162.58 161.501 1155.48 Q161.501 1148.35 159.672 1144.81 Q157.867 1141.24 154.232 1141.24 M154.232 1137.54 Q160.042 1137.54 163.098 1142.14 Q166.177 1146.73 166.177 1155.48 Q166.177 1164.2 163.098 1168.81 Q160.042 1173.39 154.232 1173.39 Q148.422 1173.39 145.343 1168.81 Q142.288 1164.2 142.288 1155.48 Q142.288 1146.73 145.343 1142.14 Q148.422 1137.54 154.232 1137.54 Z" fill="#000000" fill-rule="nonzero" fill-opacity="1" /><path clip-path="url(#clip450)" d="M66.5939 850.297 L54.7884 868.746 L66.5939 868.746 L66.5939 850.297 M65.367 846.223 L71.2466 846.223 L71.2466 868.746 L76.1772 868.746 L76.1772 872.634 L71.2466 872.634 L71.2466 880.783 L66.5939 880.783 L66.5939 872.634 L50.9921 872.634 L50.9921 868.121 L65.367 846.223 Z" fill="#000000" fill-rule="nonzero" fill-opacity="1" /><path clip-path="url(#clip450)" d="M93.9086 849.301 Q90.2975 849.301 88.4688 852.866 Q86.6632 856.408 86.6632 863.537 Q86.6632 870.644 88.4688 874.209 Q90.2975 877.75 93.9086 877.75 Q97.5428 877.75 99.3483 874.209 Q101.177 870.644 101.177 863.537 Q101.177 856.408 99.3483 852.866 Q97.5428 849.301 93.9086 849.301 M93.9086 845.598 Q99.7187 845.598 102.774 850.204 Q105.853 854.787 105.853 863.537 Q105.853 872.264 102.774 876.871 Q99.7187 881.454 93.9086 881.454 Q88.0984 881.454 85.0197 876.871 Q81.9642 872.264 81.9642 863.537 Q81.9642 854.787 85.0197 850.204 Q88.0984 845.598 93.9086 845.598 Z" fill="#000000" fill-rule="nonzero" fill-opacity="1" /><path clip-path="url(#clip450)" d="M124.07 849.301 Q120.459 849.301 118.631 852.866 Q116.825 856.408 116.825 863.537 Q116.825 870.644 118.631 874.209 Q120.459 877.75 124.07 877.75 Q127.705 877.75 129.51 874.209 Q131.339 870.644 131.339 863.537 Q131.339 856.408 129.51 852.866 Q127.705 849.301 124.07 849.301 M124.07 845.598 Q129.881 845.598 132.936 850.204 Q136.015 854.787 136.015 863.537 Q136.015 872.264 132.936 876.871 Q129.881 881.454 124.07 881.454 Q118.26 881.454 115.182 876.871 Q112.126 872.264 112.126 863.537 Q112.126 854.787 115.182 850.204 Q118.26 845.598 124.07 845.598 Z" fill="#000000" fill-rule="nonzero" fill-opacity="1" /><path clip-path="url(#clip450)" d="M154.232 849.301 Q150.621 849.301 148.793 852.866 Q146.987 856.408 146.987 863.537 Q146.987 870.644 148.793 874.209 Q150.621 877.75 154.232 877.75 Q157.867 877.75 159.672 874.209 Q161.501 870.644 161.501 863.537 Q161.501 856.408 159.672 852.866 Q157.867 849.301 154.232 849.301 M154.232 845.598 Q160.042 845.598 163.098 850.204 Q166.177 854.787 166.177 863.537 Q166.177 872.264 163.098 876.871 Q160.042 881.454 154.232 881.454 Q148.422 881.454 145.343 876.871 Q142.288 872.264 142.288 863.537 Q142.288 854.787 145.343 850.204 Q148.422 845.598 154.232 845.598 Z" fill="#000000" fill-rule="nonzero" fill-opacity="1" /><path clip-path="url(#clip450)" d="M64.3254 569.698 Q61.1773 569.698 59.3254 571.851 Q57.4967 574.004 57.4967 577.754 Q57.4967 581.481 59.3254 583.657 Q61.1773 585.809 64.3254 585.809 Q67.4735 585.809 69.3022 583.657 Q71.1541 581.481 71.1541 577.754 Q71.1541 574.004 69.3022 571.851 Q67.4735 569.698 64.3254 569.698 M73.6077 555.046 L73.6077 559.305 Q71.8485 558.472 70.0429 558.032 Q68.2606 557.592 66.5013 557.592 Q61.8717 557.592 59.418 560.717 Q56.9875 563.842 56.6402 570.161 Q58.006 568.147 60.0662 567.083 Q62.1263 565.995 64.6032 565.995 Q69.8115 565.995 72.8207 569.166 Q75.8531 572.314 75.8531 577.754 Q75.8531 583.078 72.705 586.296 Q69.5568 589.513 64.3254 589.513 Q58.33 589.513 55.1588 584.93 Q51.9875 580.323 51.9875 571.597 Q51.9875 563.402 55.8764 558.541 Q59.7652 553.657 66.3161 553.657 Q68.0754 553.657 69.8578 554.004 Q71.6633 554.351 73.6077 555.046 Z" fill="#000000" fill-rule="nonzero" fill-opacity="1" /><path clip-path="url(#clip450)" d="M93.9086 557.361 Q90.2975 557.361 88.4688 560.925 Q86.6632 564.467 86.6632 571.597 Q86.6632 578.703 88.4688 582.268 Q90.2975 585.809 93.9086 585.809 Q97.5428 585.809 99.3483 582.268 Q101.177 578.703 101.177 571.597 Q101.177 564.467 99.3483 560.925 Q97.5428 557.361 93.9086 557.361 M93.9086 553.657 Q99.7187 553.657 102.774 558.263 Q105.853 562.847 105.853 571.597 Q105.853 580.323 102.774 584.93 Q99.7187 589.513 93.9086 589.513 Q88.0984 589.513 85.0197 584.93 Q81.9642 580.323 81.9642 571.597 Q81.9642 562.847 85.0197 558.263 Q88.0984 553.657 93.9086 553.657 Z" fill="#000000" fill-rule="nonzero" fill-opacity="1" /><path clip-path="url(#clip450)" d="M124.07 557.361 Q120.459 557.361 118.631 560.925 Q116.825 564.467 116.825 571.597 Q116.825 578.703 118.631 582.268 Q120.459 585.809 124.07 585.809 Q127.705 585.809 129.51 582.268 Q131.339 578.703 131.339 571.597 Q131.339 564.467 129.51 560.925 Q127.705 557.361 124.07 557.361 M124.07 553.657 Q129.881 553.657 132.936 558.263 Q136.015 562.847 136.015 571.597 Q136.015 580.323 132.936 584.93 Q129.881 589.513 124.07 589.513 Q118.26 589.513 115.182 584.93 Q112.126 580.323 112.126 571.597 Q112.126 562.847 115.182 558.263 Q118.26 553.657 124.07 553.657 Z" fill="#000000" fill-rule="nonzero" fill-opacity="1" /><path clip-path="url(#clip450)" d="M154.232 557.361 Q150.621 557.361 148.793 560.925 Q146.987 564.467 146.987 571.597 Q146.987 578.703 148.793 582.268 Q150.621 585.809 154.232 585.809 Q157.867 585.809 159.672 582.268 Q161.501 578.703 161.501 571.597 Q161.501 564.467 159.672 560.925 Q157.867 557.361 154.232 557.361 M154.232 553.657 Q160.042 553.657 163.098 558.263 Q166.177 562.847 166.177 571.597 Q166.177 580.323 163.098 584.93 Q160.042 589.513 154.232 589.513 Q148.422 589.513 145.343 584.93 Q142.288 580.323 142.288 571.597 Q142.288 562.847 145.343 558.263 Q148.422 553.657 154.232 553.657 Z" fill="#000000" fill-rule="nonzero" fill-opacity="1" /><path clip-path="url(#clip450)" d="M63.7467 280.489 Q60.4134 280.489 58.4921 282.272 Q56.5939 284.054 56.5939 287.179 Q56.5939 290.304 58.4921 292.086 Q60.4134 293.869 63.7467 293.869 Q67.08 293.869 69.0013 292.086 Q70.9226 290.281 70.9226 287.179 Q70.9226 284.054 69.0013 282.272 Q67.1032 280.489 63.7467 280.489 M59.0708 278.498 Q56.0615 277.758 54.3717 275.698 Q52.7051 273.637 52.7051 270.674 Q52.7051 266.531 55.6449 264.123 Q58.6078 261.716 63.7467 261.716 Q68.9087 261.716 71.8485 264.123 Q74.7883 266.531 74.7883 270.674 Q74.7883 273.637 73.0985 275.698 Q71.4318 277.758 68.4457 278.498 Q71.8253 279.285 73.7003 281.577 Q75.5985 283.869 75.5985 287.179 Q75.5985 292.202 72.5198 294.887 Q69.4642 297.572 63.7467 297.572 Q58.0291 297.572 54.9504 294.887 Q51.8949 292.202 51.8949 287.179 Q51.8949 283.869 53.793 281.577 Q55.6912 279.285 59.0708 278.498 M57.3578 271.114 Q57.3578 273.799 59.0245 275.304 Q60.7143 276.809 63.7467 276.809 Q66.7559 276.809 68.4457 275.304 Q70.1587 273.799 70.1587 271.114 Q70.1587 268.429 68.4457 266.924 Q66.7559 265.42 63.7467 265.42 Q60.7143 265.42 59.0245 266.924 Q57.3578 268.429 57.3578 271.114 Z" fill="#000000" fill-rule="nonzero" fill-opacity="1" /><path clip-path="url(#clip450)" d="M93.9086 265.42 Q90.2975 265.42 88.4688 268.985 Q86.6632 272.526 86.6632 279.656 Q86.6632 286.762 88.4688 290.327 Q90.2975 293.869 93.9086 293.869 Q97.5428 293.869 99.3483 290.327 Q101.177 286.762 101.177 279.656 Q101.177 272.526 99.3483 268.985 Q97.5428 265.42 93.9086 265.42 M93.9086 261.716 Q99.7187 261.716 102.774 266.323 Q105.853 270.906 105.853 279.656 Q105.853 288.383 102.774 292.989 Q99.7187 297.572 93.9086 297.572 Q88.0984 297.572 85.0197 292.989 Q81.9642 288.383 81.9642 279.656 Q81.9642 270.906 85.0197 266.323 Q88.0984 261.716 93.9086 261.716 Z" fill="#000000" fill-rule="nonzero" fill-opacity="1" /><path clip-path="url(#clip450)" d="M124.07 265.42 Q120.459 265.42 118.631 268.985 Q116.825 272.526 116.825 279.656 Q116.825 286.762 118.631 290.327 Q120.459 293.869 124.07 293.869 Q127.705 293.869 129.51 290.327 Q131.339 286.762 131.339 279.656 Q131.339 272.526 129.51 268.985 Q127.705 265.42 124.07 265.42 M124.07 261.716 Q129.881 261.716 132.936 266.323 Q136.015 270.906 136.015 279.656 Q136.015 288.383 132.936 292.989 Q129.881 297.572 124.07 297.572 Q118.26 297.572 115.182 292.989 Q112.126 288.383 112.126 279.656 Q112.126 270.906 115.182 266.323 Q118.26 261.716 124.07 261.716 Z" fill="#000000" fill-rule="nonzero" fill-opacity="1" /><path clip-path="url(#clip450)" d="M154.232 265.42 Q150.621 265.42 148.793 268.985 Q146.987 272.526 146.987 279.656 Q146.987 286.762 148.793 290.327 Q150.621 293.869 154.232 293.869 Q157.867 293.869 159.672 290.327 Q161.501 286.762 161.501 279.656 Q161.501 272.526 159.672 268.985 Q157.867 265.42 154.232 265.42 M154.232 261.716 Q160.042 261.716 163.098 266.323 Q166.177 270.906 166.177 279.656 Q166.177 288.383 163.098 292.989 Q160.042 297.572 154.232 297.572 Q148.422 297.572 145.343 292.989 Q142.288 288.383 142.288 279.656 Q142.288 270.906 145.343 266.323 Q148.422 261.716 154.232 261.716 Z" fill="#000000" fill-rule="nonzero" fill-opacity="1" /><path clip-path="url(#clip450)" d="M495.627 8.64 L520.454 8.64 L520.454 13.559 L501.472 13.559 L501.472 26.2904 L518.602 26.2904 L518.602 31.2093 L501.472 31.2093 L501.472 51.84 L495.627 51.84 L495.627 8.64 Z" fill="#000000" fill-rule="nonzero" fill-opacity="1" /><path clip-path="url(#clip450)" d="M529.481 6.81709 L534.805 6.81709 L534.805 51.84 L529.481 51.84 L529.481 6.81709 Z" fill="#000000" fill-rule="nonzero" fill-opacity="1" /><path clip-path="url(#clip450)" d="M558.503 23.1654 Q554.221 23.1654 551.732 26.5218 Q549.244 29.8494 549.244 35.6653 Q549.244 41.4813 551.703 44.8377 Q554.192 48.1653 558.503 48.1653 Q562.757 48.1653 565.245 44.8088 Q567.733 41.4523 567.733 35.6653 Q567.733 29.9072 565.245 26.5508 Q562.757 23.1654 558.503 23.1654 M558.503 18.6515 Q565.448 18.6515 569.412 23.1654 Q573.376 27.6792 573.376 35.6653 Q573.376 43.6225 569.412 48.1653 Q565.448 52.6791 558.503 52.6791 Q551.53 52.6791 547.566 48.1653 Q543.631 43.6225 543.631 35.6653 Q543.631 27.6792 547.566 23.1654 Q551.53 18.6515 558.503 18.6515 Z" fill="#000000" fill-rule="nonzero" fill-opacity="1" /><path clip-path="url(#clip450)" d="M579.105 19.4328 L584.429 19.4328 L591.084 44.722 L597.71 19.4328 L603.989 19.4328 L610.644 44.722 L617.27 19.4328 L622.594 19.4328 L614.116 51.84 L607.837 51.84 L600.864 25.2776 L593.862 51.84 L587.583 51.84 L579.105 19.4328 Z" fill="#000000" fill-rule="nonzero" fill-opacity="1" /><path clip-path="url(#clip450)" d="M665.91 6.81709 L665.91 11.2442 L660.817 11.2442 Q657.953 11.2442 656.824 12.4016 Q655.725 13.559 655.725 16.5682 L655.725 19.4328 L664.492 19.4328 L664.492 23.5705 L655.725 23.5705 L655.725 51.84 L650.372 51.84 L650.372 23.5705 L645.279 23.5705 L645.279 19.4328 L650.372 19.4328 L650.372 17.1758 Q650.372 11.765 652.889 9.30551 Q655.407 6.81709 660.875 6.81709 L665.91 6.81709 Z" fill="#000000" fill-rule="nonzero" fill-opacity="1" /><path clip-path="url(#clip450)" d="M689.145 24.4096 Q688.248 23.8888 687.177 23.6573 Q686.136 23.3969 684.862 23.3969 Q680.349 23.3969 677.918 26.3482 Q675.516 29.2707 675.516 34.7683 L675.516 51.84 L670.163 51.84 L670.163 19.4328 L675.516 19.4328 L675.516 24.4675 Q677.195 21.5161 679.886 20.0983 Q682.577 18.6515 686.425 18.6515 Q686.975 18.6515 687.64 18.7383 Q688.306 18.7962 689.116 18.9409 L689.145 24.4096 Z" fill="#000000" fill-rule="nonzero" fill-opacity="1" /><path clip-path="url(#clip450)" d="M705.985 23.1654 Q701.703 23.1654 699.214 26.5218 Q696.726 29.8494 696.726 35.6653 Q696.726 41.4813 699.185 44.8377 Q701.674 48.1653 705.985 48.1653 Q710.238 48.1653 712.727 44.8088 Q715.215 41.4523 715.215 35.6653 Q715.215 29.9072 712.727 26.5508 Q710.238 23.1654 705.985 23.1654 M705.985 18.6515 Q712.929 18.6515 716.893 23.1654 Q720.858 27.6792 720.858 35.6653 Q720.858 43.6225 716.893 48.1653 Q712.929 52.6791 705.985 52.6791 Q699.012 52.6791 695.048 48.1653 Q691.112 43.6225 691.112 35.6653 Q691.112 27.6792 695.048 23.1654 Q699.012 18.6515 705.985 18.6515 Z" fill="#000000" fill-rule="nonzero" fill-opacity="1" /><path clip-path="url(#clip450)" d="M754.914 25.6538 Q756.911 22.0659 759.688 20.3587 Q762.466 18.6515 766.228 18.6515 Q771.291 18.6515 774.04 22.2105 Q776.789 25.7406 776.789 32.2799 L776.789 51.84 L771.436 51.84 L771.436 32.4535 Q771.436 27.795 769.787 25.5381 Q768.137 23.2811 764.752 23.2811 Q760.614 23.2811 758.213 26.03 Q755.811 28.7788 755.811 33.5241 L755.811 51.84 L750.458 51.84 L750.458 32.4535 Q750.458 27.7661 748.809 25.5381 Q747.16 23.2811 743.716 23.2811 Q739.636 23.2811 737.235 26.0589 Q734.833 28.8077 734.833 33.5241 L734.833 51.84 L729.48 51.84 L729.48 19.4328 L734.833 19.4328 L734.833 24.4675 Q736.656 21.4872 739.202 20.0693 Q741.749 18.6515 745.25 18.6515 Q748.78 18.6515 751.239 20.4455 Q753.728 22.2395 754.914 25.6538 Z" fill="#000000" fill-rule="nonzero" fill-opacity="1" /><path clip-path="url(#clip450)" d="M820.915 14.3981 L812.987 35.8968 L828.872 35.8968 L820.915 14.3981 M817.616 8.64 L824.242 8.64 L840.706 51.84 L834.63 51.84 L830.695 40.7579 L811.222 40.7579 L807.287 51.84 L801.123 51.84 L817.616 8.64 Z" fill="#000000" fill-rule="nonzero" fill-opacity="1" /><path clip-path="url(#clip450)" d="M867.442 20.3876 L867.442 25.4223 Q865.186 24.2649 862.755 23.6862 Q860.324 23.1075 857.72 23.1075 Q853.756 23.1075 851.76 24.3228 Q849.792 25.5381 849.792 27.9686 Q849.792 29.8204 851.21 30.891 Q852.628 31.9327 856.91 32.8876 L858.733 33.2926 Q864.404 34.5079 866.777 36.7359 Q869.179 38.935 869.179 42.8991 Q869.179 47.4129 865.591 50.046 Q862.032 52.6791 855.782 52.6791 Q853.177 52.6791 850.342 52.1583 Q847.535 51.6664 844.41 50.6537 L844.41 45.156 Q847.362 46.6896 850.226 47.4708 Q853.091 48.2231 855.897 48.2231 Q859.659 48.2231 861.684 46.95 Q863.71 45.6479 863.71 43.3042 Q863.71 41.134 862.234 39.9766 Q860.787 38.8192 855.84 37.7486 L853.988 37.3146 Q849.04 36.273 846.841 34.1318 Q844.642 31.9616 844.642 28.2001 Q844.642 23.6283 847.882 21.1399 Q851.123 18.6515 857.084 18.6515 Q860.035 18.6515 862.639 19.0855 Q865.243 19.5196 867.442 20.3876 Z" fill="#000000" fill-rule="nonzero" fill-opacity="1" /><path clip-path="url(#clip450)" d="M898.982 35.2602 Q898.982 29.4732 896.58 26.2904 Q894.207 23.1075 889.896 23.1075 Q885.614 23.1075 883.212 26.2904 Q880.839 29.4732 880.839 35.2602 Q880.839 41.0183 883.212 44.2012 Q885.614 47.384 889.896 47.384 Q894.207 47.384 896.58 44.2012 Q898.982 41.0183 898.982 35.2602 M904.306 47.818 Q904.306 56.0934 900.631 60.1154 Q896.956 64.1663 889.375 64.1663 Q886.569 64.1663 884.08 63.7323 Q881.592 63.3272 879.248 62.4592 L879.248 57.2798 Q881.592 58.5529 883.878 59.1606 Q886.163 59.7682 888.536 59.7682 Q893.773 59.7682 896.377 57.0194 Q898.982 54.2995 898.982 48.7729 L898.982 46.1398 Q897.332 49.0044 894.757 50.4222 Q892.182 51.84 888.594 51.84 Q882.633 51.84 878.988 47.2972 Q875.342 42.7544 875.342 35.2602 Q875.342 27.7371 878.988 23.1943 Q882.633 18.6515 888.594 18.6515 Q892.182 18.6515 894.757 20.0693 Q897.332 21.4872 898.982 24.3517 L898.982 19.4328 L904.306 19.4328 L904.306 47.818 Z" fill="#000000" fill-rule="nonzero" fill-opacity="1" /><path clip-path="url(#clip450)" d="M930 35.5496 Q923.547 35.5496 921.059 37.0253 Q918.571 38.501 918.571 42.06 Q918.571 44.8956 920.422 46.5738 Q922.303 48.2231 925.515 48.2231 Q929.942 48.2231 932.604 45.0981 Q935.295 41.9442 935.295 36.7359 L935.295 35.5496 L930 35.5496 M940.619 33.3505 L940.619 51.84 L935.295 51.84 L935.295 46.921 Q933.472 49.8724 930.752 51.2902 Q928.032 52.6791 924.097 52.6791 Q919.12 52.6791 916.169 49.9014 Q913.247 47.0947 913.247 42.4072 Q913.247 36.9385 916.892 34.1607 Q920.567 31.3829 927.83 31.3829 L935.295 31.3829 L935.295 30.8621 Q935.295 27.1874 932.865 25.1908 Q930.463 23.1654 926.094 23.1654 Q923.316 23.1654 920.683 23.8309 Q918.05 24.4964 915.619 25.8274 L915.619 20.9085 Q918.542 19.78 921.291 19.2302 Q924.039 18.6515 926.644 18.6515 Q933.675 18.6515 937.147 22.2973 Q940.619 25.9431 940.619 33.3505 Z" fill="#000000" fill-rule="nonzero" fill-opacity="1" /><path clip-path="url(#clip450)" d="M970.364 24.4096 Q969.467 23.8888 968.397 23.6573 Q967.355 23.3969 966.082 23.3969 Q961.568 23.3969 959.138 26.3482 Q956.736 29.2707 956.736 34.7683 L956.736 51.84 L951.383 51.84 L951.383 19.4328 L956.736 19.4328 L956.736 24.4675 Q958.414 21.5161 961.105 20.0983 Q963.796 18.6515 967.644 18.6515 Q968.194 18.6515 968.86 18.7383 Q969.525 18.7962 970.335 18.9409 L970.364 24.4096 Z" fill="#000000" fill-rule="nonzero" fill-opacity="1" /><path clip-path="url(#clip450)" d="M996.232 24.3517 L996.232 6.81709 L1001.56 6.81709 L1001.56 51.84 L996.232 51.84 L996.232 46.9789 Q994.554 49.8724 991.979 51.2902 Q989.433 52.6791 985.845 52.6791 Q979.971 52.6791 976.267 47.9916 Q972.592 43.3042 972.592 35.6653 Q972.592 28.0265 976.267 23.339 Q979.971 18.6515 985.845 18.6515 Q989.433 18.6515 991.979 20.0693 Q994.554 21.4582 996.232 24.3517 M978.09 35.6653 Q978.09 41.5391 980.492 44.8956 Q982.922 48.2231 987.147 48.2231 Q991.371 48.2231 993.802 44.8956 Q996.232 41.5391 996.232 35.6653 Q996.232 29.7915 993.802 26.464 Q991.371 23.1075 987.147 23.1075 Q982.922 23.1075 980.492 26.464 Q978.09 29.7915 978.09 35.6653 Z" fill="#000000" fill-rule="nonzero" fill-opacity="1" /><path clip-path="url(#clip450)" d="M1037.15 61.6779 L1037.15 65.8156 L1006.36 65.8156 L1006.36 61.6779 L1037.15 61.6779 Z" fill="#000000" fill-rule="nonzero" fill-opacity="1" /><path clip-path="url(#clip450)" d="M1068.28 10.0578 L1068.28 15.758 Q1064.95 14.1666 1062 13.3853 Q1059.05 12.6041 1056.3 12.6041 Q1051.53 12.6041 1048.92 14.4559 Q1046.35 16.3078 1046.35 19.7221 Q1046.35 22.5867 1048.05 24.0624 Q1049.79 25.5091 1054.59 26.4061 L1058.12 27.1295 Q1064.66 28.3737 1067.76 31.5276 Q1070.88 34.6526 1070.88 39.9188 Q1070.88 46.1977 1066.66 49.4384 Q1062.46 52.6791 1054.33 52.6791 Q1051.27 52.6791 1047.79 51.9847 Q1044.35 51.2902 1040.65 49.9303 L1040.65 43.9118 Q1044.21 45.9083 1047.62 46.921 Q1051.04 47.9338 1054.33 47.9338 Q1059.34 47.9338 1062.06 45.9662 Q1064.78 43.9986 1064.78 40.3528 Q1064.78 37.1699 1062.81 35.376 Q1060.87 33.582 1056.42 32.685 L1052.86 31.9906 Q1046.32 30.6885 1043.4 27.9107 Q1040.47 25.133 1040.47 20.1851 Q1040.47 14.4559 1044.5 11.1573 Q1048.55 7.85875 1055.64 7.85875 Q1058.67 7.85875 1061.83 8.40852 Q1064.98 8.95829 1068.28 10.0578 Z" fill="#000000" fill-rule="nonzero" fill-opacity="1" /><path clip-path="url(#clip450)" d="M1092.33 23.1654 Q1088.04 23.1654 1085.55 26.5218 Q1083.07 29.8494 1083.07 35.6653 Q1083.07 41.4813 1085.53 44.8377 Q1088.01 48.1653 1092.33 48.1653 Q1096.58 48.1653 1099.07 44.8088 Q1101.56 41.4523 1101.56 35.6653 Q1101.56 29.9072 1099.07 26.5508 Q1096.58 23.1654 1092.33 23.1654 M1092.33 18.6515 Q1099.27 18.6515 1103.23 23.1654 Q1107.2 27.6792 1107.2 35.6653 Q1107.2 43.6225 1103.23 48.1653 Q1099.27 52.6791 1092.33 52.6791 Q1085.35 52.6791 1081.39 48.1653 Q1077.45 43.6225 1077.45 35.6653 Q1077.45 27.6792 1081.39 23.1654 Q1085.35 18.6515 1092.33 18.6515 Z" fill="#000000" fill-rule="nonzero" fill-opacity="1" /><path clip-path="url(#clip450)" d="M1116.02 6.81709 L1121.35 6.81709 L1121.35 51.84 L1116.02 51.84 L1116.02 6.81709 Z" fill="#000000" fill-rule="nonzero" fill-opacity="1" /><path clip-path="url(#clip450)" d="M1147.22 35.5496 Q1140.76 35.5496 1138.27 37.0253 Q1135.79 38.501 1135.79 42.06 Q1135.79 44.8956 1137.64 46.5738 Q1139.52 48.2231 1142.73 48.2231 Q1147.16 48.2231 1149.82 45.0981 Q1152.51 41.9442 1152.51 36.7359 L1152.51 35.5496 L1147.22 35.5496 M1157.83 33.3505 L1157.83 51.84 L1152.51 51.84 L1152.51 46.921 Q1150.69 49.8724 1147.97 51.2902 Q1145.25 52.6791 1141.31 52.6791 Q1136.34 52.6791 1133.38 49.9014 Q1130.46 47.0947 1130.46 42.4072 Q1130.46 36.9385 1134.11 34.1607 Q1137.78 31.3829 1145.05 31.3829 L1152.51 31.3829 L1152.51 30.8621 Q1152.51 27.1874 1150.08 25.1908 Q1147.68 23.1654 1143.31 23.1654 Q1140.53 23.1654 1137.9 23.8309 Q1135.27 24.4964 1132.83 25.8274 L1132.83 20.9085 Q1135.76 19.78 1138.51 19.2302 Q1141.25 18.6515 1143.86 18.6515 Q1150.89 18.6515 1154.36 22.2973 Q1157.83 25.9431 1157.83 33.3505 Z" fill="#000000" fill-rule="nonzero" fill-opacity="1" /><path clip-path="url(#clip450)" d="M1187.58 24.4096 Q1186.68 23.8888 1185.61 23.6573 Q1184.57 23.3969 1183.3 23.3969 Q1178.78 23.3969 1176.35 26.3482 Q1173.95 29.2707 1173.95 34.7683 L1173.95 51.84 L1168.6 51.84 L1168.6 19.4328 L1173.95 19.4328 L1173.95 24.4675 Q1175.63 21.5161 1178.32 20.0983 Q1181.01 18.6515 1184.86 18.6515 Q1185.41 18.6515 1186.08 18.7383 Q1186.74 18.7962 1187.55 18.9409 L1187.58 24.4096 Z" fill="#000000" fill-rule="nonzero" fill-opacity="1" /><path clip-path="url(#clip450)" d="M1217.27 10.2314 L1217.27 19.4328 L1228.23 19.4328 L1228.23 23.5705 L1217.27 23.5705 L1217.27 41.163 Q1217.27 45.1271 1218.34 46.2555 Q1219.44 47.384 1222.76 47.384 L1228.23 47.384 L1228.23 51.84 L1222.76 51.84 Q1216.6 51.84 1214.26 49.5541 Q1211.91 47.2393 1211.91 41.163 L1211.91 23.5705 L1208.01 23.5705 L1208.01 19.4328 L1211.91 19.4328 L1211.91 10.2314 L1217.27 10.2314 Z" fill="#000000" fill-rule="nonzero" fill-opacity="1" /><path clip-path="url(#clip450)" d="M1247.79 23.1654 Q1243.51 23.1654 1241.02 26.5218 Q1238.53 29.8494 1238.53 35.6653 Q1238.53 41.4813 1240.99 44.8377 Q1243.48 48.1653 1247.79 48.1653 Q1252.05 48.1653 1254.54 44.8088 Q1257.02 41.4523 1257.02 35.6653 Q1257.02 29.9072 1254.54 26.5508 Q1252.05 23.1654 1247.79 23.1654 M1247.79 18.6515 Q1254.74 18.6515 1258.7 23.1654 Q1262.67 27.6792 1262.67 35.6653 Q1262.67 43.6225 1258.7 48.1653 Q1254.74 52.6791 1247.79 52.6791 Q1240.82 52.6791 1236.86 48.1653 Q1232.92 43.6225 1232.92 35.6653 Q1232.92 27.6792 1236.86 23.1654 Q1240.82 18.6515 1247.79 18.6515 Z" fill="#000000" fill-rule="nonzero" fill-opacity="1" /><path clip-path="url(#clip450)" d="M1305 14.3981 L1297.07 35.8968 L1312.96 35.8968 L1305 14.3981 M1301.7 8.64 L1308.33 8.64 L1324.79 51.84 L1318.71 51.84 L1314.78 40.7579 L1295.3 40.7579 L1291.37 51.84 L1285.21 51.84 L1301.7 8.64 Z" fill="#000000" fill-rule="nonzero" fill-opacity="1" /><path clip-path="url(#clip450)" d="M1351.53 20.3876 L1351.53 25.4223 Q1349.27 24.2649 1346.84 23.6862 Q1344.41 23.1075 1341.8 23.1075 Q1337.84 23.1075 1335.84 24.3228 Q1333.88 25.5381 1333.88 27.9686 Q1333.88 29.8204 1335.29 30.891 Q1336.71 31.9327 1340.99 32.8876 L1342.82 33.2926 Q1348.49 34.5079 1350.86 36.7359 Q1353.26 38.935 1353.26 42.8991 Q1353.26 47.4129 1349.67 50.046 Q1346.11 52.6791 1339.86 52.6791 Q1337.26 52.6791 1334.42 52.1583 Q1331.62 51.6664 1328.49 50.6537 L1328.49 45.156 Q1331.44 46.6896 1334.31 47.4708 Q1337.17 48.2231 1339.98 48.2231 Q1343.74 48.2231 1345.77 46.95 Q1347.79 45.6479 1347.79 43.3042 Q1347.79 41.134 1346.32 39.9766 Q1344.87 38.8192 1339.92 37.7486 L1338.07 37.3146 Q1333.12 36.273 1330.92 34.1318 Q1328.72 31.9616 1328.72 28.2001 Q1328.72 23.6283 1331.97 21.1399 Q1335.21 18.6515 1341.17 18.6515 Q1344.12 18.6515 1346.72 19.0855 Q1349.33 19.5196 1351.53 20.3876 Z" fill="#000000" fill-rule="nonzero" fill-opacity="1" /><path clip-path="url(#clip450)" d="M1383.06 35.2602 Q1383.06 29.4732 1380.66 26.2904 Q1378.29 23.1075 1373.98 23.1075 Q1369.7 23.1075 1367.3 26.2904 Q1364.92 29.4732 1364.92 35.2602 Q1364.92 41.0183 1367.3 44.2012 Q1369.7 47.384 1373.98 47.384 Q1378.29 47.384 1380.66 44.2012 Q1383.06 41.0183 1383.06 35.2602 M1388.39 47.818 Q1388.39 56.0934 1384.71 60.1154 Q1381.04 64.1663 1373.46 64.1663 Q1370.65 64.1663 1368.16 63.7323 Q1365.67 63.3272 1363.33 62.4592 L1363.33 57.2798 Q1365.67 58.5529 1367.96 59.1606 Q1370.25 59.7682 1372.62 59.7682 Q1377.86 59.7682 1380.46 57.0194 Q1383.06 54.2995 1383.06 48.7729 L1383.06 46.1398 Q1381.42 49.0044 1378.84 50.4222 Q1376.26 51.84 1372.68 51.84 Q1366.72 51.84 1363.07 47.2972 Q1359.42 42.7544 1359.42 35.2602 Q1359.42 27.7371 1363.07 23.1943 Q1366.72 18.6515 1372.68 18.6515 Q1376.26 18.6515 1378.84 20.0693 Q1381.42 21.4872 1383.06 24.3517 L1383.06 19.4328 L1388.39 19.4328 L1388.39 47.818 Z" fill="#000000" fill-rule="nonzero" fill-opacity="1" /><path clip-path="url(#clip450)" d="M1414.08 35.5496 Q1407.63 35.5496 1405.14 37.0253 Q1402.65 38.501 1402.65 42.06 Q1402.65 44.8956 1404.51 46.5738 Q1406.39 48.2231 1409.6 48.2231 Q1414.03 48.2231 1416.69 45.0981 Q1419.38 41.9442 1419.38 36.7359 L1419.38 35.5496 L1414.08 35.5496 M1424.7 33.3505 L1424.7 51.84 L1419.38 51.84 L1419.38 46.921 Q1417.56 49.8724 1414.84 51.2902 Q1412.12 52.6791 1408.18 52.6791 Q1403.2 52.6791 1400.25 49.9014 Q1397.33 47.0947 1397.33 42.4072 Q1397.33 36.9385 1400.98 34.1607 Q1404.65 31.3829 1411.91 31.3829 L1419.38 31.3829 L1419.38 30.8621 Q1419.38 27.1874 1416.95 25.1908 Q1414.55 23.1654 1410.18 23.1654 Q1407.4 23.1654 1404.77 23.8309 Q1402.13 24.4964 1399.7 25.8274 L1399.7 20.9085 Q1402.62 19.78 1405.37 19.2302 Q1408.12 18.6515 1410.73 18.6515 Q1417.76 18.6515 1421.23 22.2973 Q1424.7 25.9431 1424.7 33.3505 Z" fill="#000000" fill-rule="nonzero" fill-opacity="1" /><path clip-path="url(#clip450)" d="M1454.45 24.4096 Q1453.55 23.8888 1452.48 23.6573 Q1451.44 23.3969 1450.17 23.3969 Q1445.65 23.3969 1443.22 26.3482 Q1440.82 29.2707 1440.82 34.7683 L1440.82 51.84 L1435.47 51.84 L1435.47 19.4328 L1440.82 19.4328 L1440.82 24.4675 Q1442.5 21.5161 1445.19 20.0983 Q1447.88 18.6515 1451.73 18.6515 Q1452.28 18.6515 1452.94 18.7383 Q1453.61 18.7962 1454.42 18.9409 L1454.45 24.4096 Z" fill="#000000" fill-rule="nonzero" fill-opacity="1" /><path clip-path="url(#clip450)" d="M1480.32 24.3517 L1480.32 6.81709 L1485.64 6.81709 L1485.64 51.84 L1480.32 51.84 L1480.32 46.9789 Q1478.64 49.8724 1476.06 51.2902 Q1473.52 52.6791 1469.93 52.6791 Q1464.05 52.6791 1460.35 47.9916 Q1456.68 43.3042 1456.68 35.6653 Q1456.68 28.0265 1460.35 23.339 Q1464.05 18.6515 1469.93 18.6515 Q1473.52 18.6515 1476.06 20.0693 Q1478.64 21.4582 1480.32 24.3517 M1462.17 35.6653 Q1462.17 41.5391 1464.57 44.8956 Q1467.01 48.2231 1471.23 48.2231 Q1475.45 48.2231 1477.88 44.8956 Q1480.32 41.5391 1480.32 35.6653 Q1480.32 29.7915 1477.88 26.464 Q1475.45 23.1075 1471.23 23.1075 Q1467.01 23.1075 1464.57 26.464 Q1462.17 29.7915 1462.17 35.6653 Z" fill="#000000" fill-rule="nonzero" fill-opacity="1" /><path clip-path="url(#clip450)" d="M1521.23 61.6779 L1521.23 65.8156 L1490.44 65.8156 L1490.44 61.6779 L1521.23 61.6779 Z" fill="#000000" fill-rule="nonzero" fill-opacity="1" /><path clip-path="url(#clip450)" d="M1526.47 8.64 L1553.78 8.64 L1553.78 13.559 L1532.31 13.559 L1532.31 26.3482 L1552.88 26.3482 L1552.88 31.2672 L1532.31 31.2672 L1532.31 46.921 L1554.3 46.921 L1554.3 51.84 L1526.47 51.84 L1526.47 8.64 Z" fill="#000000" fill-rule="nonzero" fill-opacity="1" /><path clip-path="url(#clip450)" d="M1588.3 61.6779 L1588.3 65.8156 L1557.51 65.8156 L1557.51 61.6779 L1588.3 61.6779 Z" fill="#000000" fill-rule="nonzero" fill-opacity="1" /><path clip-path="url(#clip450)" d="M1614.63 24.3517 L1614.63 6.81709 L1619.96 6.81709 L1619.96 51.84 L1614.63 51.84 L1614.63 46.9789 Q1612.95 49.8724 1610.38 51.2902 Q1607.83 52.6791 1604.24 52.6791 Q1598.37 52.6791 1594.67 47.9916 Q1590.99 43.3042 1590.99 35.6653 Q1590.99 28.0265 1594.67 23.339 Q1598.37 18.6515 1604.24 18.6515 Q1607.83 18.6515 1610.38 20.0693 Q1612.95 21.4582 1614.63 24.3517 M1596.49 35.6653 Q1596.49 41.5391 1598.89 44.8956 Q1601.32 48.2231 1605.55 48.2231 Q1609.77 48.2231 1612.2 44.8956 Q1614.63 41.5391 1614.63 35.6653 Q1614.63 29.7915 1612.2 26.464 Q1609.77 23.1075 1605.55 23.1075 Q1601.32 23.1075 1598.89 26.464 Q1596.49 29.7915 1596.49 35.6653 Z" fill="#000000" fill-rule="nonzero" fill-opacity="1" /><path clip-path="url(#clip450)" d="M1658.64 34.3054 L1658.64 36.9095 L1634.16 36.9095 Q1634.51 42.4072 1637.46 45.3007 Q1640.44 48.1653 1645.74 48.1653 Q1648.8 48.1653 1651.67 47.4129 Q1654.56 46.6606 1657.4 45.156 L1657.4 50.1907 Q1654.53 51.406 1651.52 52.0425 Q1648.51 52.6791 1645.42 52.6791 Q1637.66 52.6791 1633.12 48.1653 Q1628.61 43.6514 1628.61 35.9547 Q1628.61 27.9975 1632.89 23.339 Q1637.2 18.6515 1644.49 18.6515 Q1651.03 18.6515 1654.82 22.876 Q1658.64 27.0716 1658.64 34.3054 M1653.32 32.7429 Q1653.26 28.3737 1650.86 25.7695 Q1648.49 23.1654 1644.55 23.1654 Q1640.09 23.1654 1637.4 25.6827 Q1634.74 28.2001 1634.34 32.7718 L1653.32 32.7429 Z" fill="#000000" fill-rule="nonzero" fill-opacity="1" /><path clip-path="url(#clip450)" d="M1692.61 25.6538 Q1694.61 22.0659 1697.39 20.3587 Q1700.16 18.6515 1703.93 18.6515 Q1708.99 18.6515 1711.74 22.2105 Q1714.49 25.7406 1714.49 32.2799 L1714.49 51.84 L1709.13 51.84 L1709.13 32.4535 Q1709.13 27.795 1707.48 25.5381 Q1705.83 23.2811 1702.45 23.2811 Q1698.31 23.2811 1695.91 26.03 Q1693.51 28.7788 1693.51 33.5241 L1693.51 51.84 L1688.16 51.84 L1688.16 32.4535 Q1688.16 27.7661 1686.51 25.5381 Q1684.86 23.2811 1681.41 23.2811 Q1677.33 23.2811 1674.93 26.0589 Q1672.53 28.8077 1672.53 33.5241 L1672.53 51.84 L1667.18 51.84 L1667.18 19.4328 L1672.53 19.4328 L1672.53 24.4675 Q1674.35 21.4872 1676.9 20.0693 Q1679.45 18.6515 1682.95 18.6515 Q1686.48 18.6515 1688.94 20.4455 Q1691.43 22.2395 1692.61 25.6538 Z" fill="#000000" fill-rule="nonzero" fill-opacity="1" /><path clip-path="url(#clip450)" d="M1739.83 35.5496 Q1733.38 35.5496 1730.89 37.0253 Q1728.4 38.501 1728.4 42.06 Q1728.4 44.8956 1730.26 46.5738 Q1732.14 48.2231 1735.35 48.2231 Q1739.78 48.2231 1742.44 45.0981 Q1745.13 41.9442 1745.13 36.7359 L1745.13 35.5496 L1739.83 35.5496 M1750.45 33.3505 L1750.45 51.84 L1745.13 51.84 L1745.13 46.921 Q1743.31 49.8724 1740.59 51.2902 Q1737.87 52.6791 1733.93 52.6791 Q1728.95 52.6791 1726 49.9014 Q1723.08 47.0947 1723.08 42.4072 Q1723.08 36.9385 1726.73 34.1607 Q1730.4 31.3829 1737.66 31.3829 L1745.13 31.3829 L1745.13 30.8621 Q1745.13 27.1874 1742.7 25.1908 Q1740.3 23.1654 1735.93 23.1654 Q1733.15 23.1654 1730.52 23.8309 Q1727.88 24.4964 1725.45 25.8274 L1725.45 20.9085 Q1728.38 19.78 1731.12 19.2302 Q1733.87 18.6515 1736.48 18.6515 Q1743.51 18.6515 1746.98 22.2973 Q1750.45 25.9431 1750.45 33.3505 Z" fill="#000000" fill-rule="nonzero" fill-opacity="1" /><path clip-path="url(#clip450)" d="M1788.36 32.2799 L1788.36 51.84 L1783.03 51.84 L1783.03 32.4535 Q1783.03 27.8529 1781.24 25.567 Q1779.45 23.2811 1775.86 23.2811 Q1771.55 23.2811 1769.06 26.03 Q1766.57 28.7788 1766.57 33.5241 L1766.57 51.84 L1761.22 51.84 L1761.22 19.4328 L1766.57 19.4328 L1766.57 24.4675 Q1768.48 21.545 1771.05 20.0983 Q1773.66 18.6515 1777.04 18.6515 Q1782.63 18.6515 1785.49 22.1237 Q1788.36 25.567 1788.36 32.2799 Z" fill="#000000" fill-rule="nonzero" fill-opacity="1" /><path clip-path="url(#clip450)" d="M1820.3 24.3517 L1820.3 6.81709 L1825.63 6.81709 L1825.63 51.84 L1820.3 51.84 L1820.3 46.9789 Q1818.62 49.8724 1816.05 51.2902 Q1813.5 52.6791 1809.91 52.6791 Q1804.04 52.6791 1800.34 47.9916 Q1796.66 43.3042 1796.66 35.6653 Q1796.66 28.0265 1800.34 23.339 Q1804.04 18.6515 1809.91 18.6515 Q1813.5 18.6515 1816.05 20.0693 Q1818.62 21.4582 1820.3 24.3517 M1802.16 35.6653 Q1802.16 41.5391 1804.56 44.8956 Q1806.99 48.2231 1811.22 48.2231 Q1815.44 48.2231 1817.87 44.8956 Q1820.3 41.5391 1820.3 35.6653 Q1820.3 29.7915 1817.87 26.464 Q1815.44 23.1075 1811.22 23.1075 Q1806.99 23.1075 1804.56 26.464 Q1802.16 29.7915 1802.16 35.6653 Z" fill="#000000" fill-rule="nonzero" fill-opacity="1" /><path clip-path="url(#clip450)" d="M1871.84 6.81709 L1871.84 11.2442 L1866.74 11.2442 Q1863.88 11.2442 1862.75 12.4016 Q1861.65 13.559 1861.65 16.5682 L1861.65 19.4328 L1870.42 19.4328 L1870.42 23.5705 L1861.65 23.5705 L1861.65 51.84 L1856.3 51.84 L1856.3 23.5705 L1851.2 23.5705 L1851.2 19.4328 L1856.3 19.4328 L1856.3 17.1758 Q1856.3 11.765 1858.81 9.30551 Q1861.33 6.81709 1866.8 6.81709 L1871.84 6.81709 Z" fill="#000000" fill-rule="nonzero" fill-opacity="1" /><path clip-path="url(#clip450)" d="M1888.85 23.1654 Q1884.57 23.1654 1882.08 26.5218 Q1879.59 29.8494 1879.59 35.6653 Q1879.59 41.4813 1882.05 44.8377 Q1884.54 48.1653 1888.85 48.1653 Q1893.1 48.1653 1895.59 44.8088 Q1898.08 41.4523 1898.08 35.6653 Q1898.08 29.9072 1895.59 26.5508 Q1893.1 23.1654 1888.85 23.1654 M1888.85 18.6515 Q1895.79 18.6515 1899.76 23.1654 Q1903.72 27.6792 1903.72 35.6653 Q1903.72 43.6225 1899.76 48.1653 Q1895.79 52.6791 1888.85 52.6791 Q1881.88 52.6791 1877.91 48.1653 Q1873.98 43.6225 1873.98 35.6653 Q1873.98 27.6792 1877.91 23.1654 Q1881.88 18.6515 1888.85 18.6515 Z" fill="#000000" fill-rule="nonzero" fill-opacity="1" /><path clip-path="url(#clip450)" d="M1931.33 24.4096 Q1930.43 23.8888 1929.36 23.6573 Q1928.32 23.3969 1927.04 23.3969 Q1922.53 23.3969 1920.1 26.3482 Q1917.7 29.2707 1917.7 34.7683 L1917.7 51.84 L1912.34 51.84 L1912.34 19.4328 L1917.7 19.4328 L1917.7 24.4675 Q1919.38 21.5161 1922.07 20.0983 Q1924.76 18.6515 1928.61 18.6515 Q1929.16 18.6515 1929.82 18.7383 Q1930.49 18.7962 1931.3 18.9409 L1931.33 24.4096 Z" fill="#000000" fill-rule="nonzero" fill-opacity="1" /><path clip-path="url(#clip450)" d="M1976.46 31.5855 Q1978.35 32.222 1980.11 34.3054 Q1981.9 36.3887 1983.7 40.0345 L1989.63 51.84 L1983.35 51.84 L1977.82 40.7579 Q1975.68 36.4176 1973.66 34.9998 Q1971.66 33.582 1968.19 33.582 L1961.82 33.582 L1961.82 51.84 L1955.98 51.84 L1955.98 8.64 L1969.17 8.64 Q1976.58 8.64 1980.23 11.736 Q1983.87 14.8321 1983.87 21.0821 Q1983.87 25.1619 1981.96 27.8529 Q1980.08 30.5438 1976.46 31.5855 M1961.82 13.4432 L1961.82 28.7788 L1969.17 28.7788 Q1973.4 28.7788 1975.54 26.8401 Q1977.71 24.8726 1977.71 21.0821 Q1977.71 17.2916 1975.54 15.3819 Q1973.4 13.4432 1969.17 13.4432 L1961.82 13.4432 Z" fill="#000000" fill-rule="nonzero" fill-opacity="1" /><path clip-path="url(#clip450)" d="M2003 13.4432 L2003 29.6758 L2010.35 29.6758 Q2014.43 29.6758 2016.66 27.5635 Q2018.88 25.4513 2018.88 21.545 Q2018.88 17.6677 2016.66 15.5555 Q2014.43 13.4432 2010.35 13.4432 L2003 13.4432 M1997.15 8.64 L2010.35 8.64 Q2017.61 8.64 2021.31 11.9386 Q2025.05 15.2083 2025.05 21.545 Q2025.05 27.9397 2021.31 31.2093 Q2017.61 34.479 2010.35 34.479 L2003 34.479 L2003 51.84 L1997.15 51.84 L1997.15 8.64 Z" fill="#000000" fill-rule="nonzero" fill-opacity="1" /><path clip-path="url(#clip450)" d="M2034.42 46.921 L2043.97 46.921 L2043.97 13.964 L2033.58 16.0474 L2033.58 10.7233 L2043.91 8.64 L2049.76 8.64 L2049.76 46.921 L2059.31 46.921 L2059.31 51.84 L2034.42 51.84 L2034.42 46.921 Z" fill="#000000" fill-rule="nonzero" fill-opacity="1" /><polyline clip-path="url(#clip452)" style="stroke:#009af9; stroke-linecap:round; stroke-linejoin:round; stroke-width:4; stroke-opacity:1; fill:none" points="263.042,1447.38 275.191,1447.38 287.34,1447.38 299.489,1447.38 311.637,1447.38 323.786,1447.38 335.935,1447.38 348.084,1447.38 360.232,1447.38 372.381,1447.38 384.53,1447.38 396.679,1447.38 408.828,1447.38 420.976,1447.38 433.125,1447.38 445.274,1447.38 457.423,1447.38 469.572,1447.38 481.72,1447.38 493.869,1447.38 506.018,1447.38 518.167,1447.38 530.316,1447.38 542.464,1447.38 554.613,1447.38 566.762,1447.38 578.911,1447.38 591.06,1447.38 603.208,1447.38 615.357,1447.38 627.506,1447.38 639.655,1447.38 651.803,1447.38 663.952,1447.38 676.101,1447.38 688.25,1447.38 700.399,1447.38 712.547,1447.38 724.696,1447.38 736.845,1447.38 748.994,1447.38 761.143,1447.38 773.291,1447.38 785.44,1447.38 797.589,1447.38 809.738,1447.38 821.887,1447.38 834.035,1447.38 846.184,1447.38 858.333,1447.38 870.482,1447.38 882.631,1447.38 894.779,1447.38 906.928,1447.38 919.077,1447.38 931.226,1447.38 943.375,1447.38 955.523,1447.38 967.672,1447.38 979.821,1447.38 991.97,1447.38 1004.12,1447.38 1016.27,1447.38 1028.42,1447.38 1040.56,1447.38 1052.71,1447.38 1064.86,1447.38 1077.01,1447.38 1089.16,1447.38 1101.31,1447.38 1113.46,1447.38 1125.61,1447.38 1137.76,1447.38 1149.9,1447.38 1162.05,1447.38 1174.2,1447.38 1186.35,1447.38 1198.5,1447.38 1210.65,1447.38 1222.8,1447.38 1234.95,1447.38 1247.09,1447.38 1259.24,1447.38 1271.39,1447.38 1283.54,1447.38 1295.69,1447.38 1307.84,1447.38 1319.99,1447.38 1332.14,1447.38 1344.28,1447.38 1356.43,1447.38 1368.58,1447.38 1380.73,1447.38 1392.88,1447.38 1405.03,1447.38 1417.18,1447.38 1429.33,1447.38 1441.47,1447.38 1453.62,1447.38 1465.77,1447.38 1477.92,1447.38 1490.07,1447.38 1502.22,1447.38 1514.37,1447.38 1526.52,1152.8 1538.67,778.006 1550.81,560.997 1562.96,370.185 1575.11,308.718 1587.26,323.412 1599.41,775.92 1611.56,1359.8 1623.71,1447.38 1635.86,1447.38 1648,1447.38 1660.15,1447.38 1672.3,1447.38 1684.45,1447.38 1696.6,1447.38 1708.75,1447.38 1720.9,1447.38 1733.05,1447.38 1745.19,1447.38 1757.34,1447.38 1769.49,1447.38 1781.64,1447.38 1793.79,1447.38 1805.94,1447.38 1818.09,1060.56 1830.24,596.994 1842.39,287.788 1854.53,145.256 1866.68,253.717 1878.83,543.279 1890.98,951.085 1903.13,1403.59 1915.28,1447.38 1927.43,1447.38 1939.58,1447.38 1951.72,1447.38 1963.87,1447.38 1976.02,1447.38 1988.17,1447.38 2000.32,1447.38 2012.47,1447.38 2024.62,1447.38 2036.77,1447.38 2048.91,1447.38 2061.06,1447.38 2073.21,1447.38 2085.36,1447.38 2097.51,1440.09 2109.66,1213.83 2121.81,790.517 2133.96,556.965 2146.1,381.8 2158.25,469.383 2170.4,644.547 2182.55,1045.97 2194.7,1403.59 2206.85,1447.38 2219,1447.38 2231.15,1447.38 2243.3,1447.38 2255.44,1447.38 2267.59,1447.38 2279.74,1447.38 2291.89,1447.38 "/>
</svg>
