<?xml version="1.0" encoding="utf-8"?>
<svg xmlns="http://www.w3.org/2000/svg" xmlns:xlink="http://www.w3.org/1999/xlink" width="800" height="600" viewBox="0 0 3200 2400">
<defs>
  <clipPath id="clip630">
    <rect x="0" y="0" width="3200" height="2400"/>
  </clipPath>
</defs>
<path clip-path="url(#clip630)" d="M0 2400 L3200 2400 L3200 0 L0 0  Z" fill="#ffffff" fill-rule="evenodd" fill-opacity="1"/>
<defs>
  <clipPath id="clip631">
    <rect x="640" y="0" width="2241" height="2241"/>
  </clipPath>
</defs>
<path clip-path="url(#clip630)" d="M344.597 2274.13 L1567.84 2274.13 L1567.84 47.2441 L344.597 47.2441  Z" fill="#ffffff" fill-rule="evenodd" fill-opacity="1"/>
<defs>
  <clipPath id="clip632">
    <rect x="344" y="47" width="1224" height="2228"/>
  </clipPath>
</defs>
<polyline clip-path="url(#clip632)" style="stroke:#000000; stroke-linecap:round; stroke-linejoin:round; stroke-width:2; stroke-opacity:0.1; fill:none" points="372.307,2274.13 372.307,47.2441 "/>
<polyline clip-path="url(#clip632)" style="stroke:#000000; stroke-linecap:round; stroke-linejoin:round; stroke-width:2; stroke-opacity:0.1; fill:none" points="717.816,2274.13 717.816,47.2441 "/>
<polyline clip-path="url(#clip632)" style="stroke:#000000; stroke-linecap:round; stroke-linejoin:round; stroke-width:2; stroke-opacity:0.1; fill:none" points="1063.32,2274.13 1063.32,47.2441 "/>
<polyline clip-path="url(#clip632)" style="stroke:#000000; stroke-linecap:round; stroke-linejoin:round; stroke-width:2; stroke-opacity:0.1; fill:none" points="1408.83,2274.13 1408.83,47.2441 "/>
<polyline clip-path="url(#clip630)" style="stroke:#000000; stroke-linecap:round; stroke-linejoin:round; stroke-width:4; stroke-opacity:1; fill:none" points="344.597,2274.13 1567.84,2274.13 "/>
<polyline clip-path="url(#clip630)" style="stroke:#000000; stroke-linecap:round; stroke-linejoin:round; stroke-width:4; stroke-opacity:1; fill:none" points="372.307,2274.13 372.307,2255.23 "/>
<polyline clip-path="url(#clip630)" style="stroke:#000000; stroke-linecap:round; stroke-linejoin:round; stroke-width:4; stroke-opacity:1; fill:none" points="717.816,2274.13 717.816,2255.23 "/>
<polyline clip-path="url(#clip630)" style="stroke:#000000; stroke-linecap:round; stroke-linejoin:round; stroke-width:4; stroke-opacity:1; fill:none" points="1063.32,2274.13 1063.32,2255.23 "/>
<polyline clip-path="url(#clip630)" style="stroke:#000000; stroke-linecap:round; stroke-linejoin:round; stroke-width:4; stroke-opacity:1; fill:none" points="1408.83,2274.13 1408.83,2255.23 "/>
<path clip-path="url(#clip630)" d="M372.307 2311.45 Q368.696 2311.45 366.867 2315.01 Q365.062 2318.55 365.062 2325.68 Q365.062 2332.79 366.867 2336.35 Q368.696 2339.9 372.307 2339.9 Q375.941 2339.9 377.747 2336.35 Q379.576 2332.79 379.576 2325.68 Q379.576 2318.55 377.747 2315.01 Q375.941 2311.45 372.307 2311.45 M372.307 2307.74 Q378.117 2307.74 381.173 2312.35 Q384.251 2316.93 384.251 2325.68 Q384.251 2334.41 381.173 2339.02 Q378.117 2343.6 372.307 2343.6 Q366.497 2343.6 363.418 2339.02 Q360.363 2334.41 360.363 2325.68 Q360.363 2316.93 363.418 2312.35 Q366.497 2307.74 372.307 2307.74 Z" fill="#000000" fill-rule="nonzero" fill-opacity="1" /><path clip-path="url(#clip630)" d="M692.515 2308.37 L710.872 2308.37 L710.872 2312.3 L696.798 2312.3 L696.798 2320.78 Q697.816 2320.43 698.835 2320.27 Q699.853 2320.08 700.872 2320.08 Q706.659 2320.08 710.038 2323.25 Q713.418 2326.42 713.418 2331.84 Q713.418 2337.42 709.946 2340.52 Q706.473 2343.6 700.154 2343.6 Q697.978 2343.6 695.71 2343.23 Q693.464 2342.86 691.057 2342.12 L691.057 2337.42 Q693.14 2338.55 695.362 2339.11 Q697.585 2339.66 700.061 2339.66 Q704.066 2339.66 706.404 2337.56 Q708.742 2335.45 708.742 2331.84 Q708.742 2328.23 706.404 2326.12 Q704.066 2324.02 700.061 2324.02 Q698.186 2324.02 696.311 2324.43 Q694.46 2324.85 692.515 2325.73 L692.515 2308.37 Z" fill="#000000" fill-rule="nonzero" fill-opacity="1" /><path clip-path="url(#clip630)" d="M732.631 2311.45 Q729.02 2311.45 727.191 2315.01 Q725.385 2318.55 725.385 2325.68 Q725.385 2332.79 727.191 2336.35 Q729.02 2339.9 732.631 2339.9 Q736.265 2339.9 738.07 2336.35 Q739.899 2332.79 739.899 2325.68 Q739.899 2318.55 738.07 2315.01 Q736.265 2311.45 732.631 2311.45 M732.631 2307.74 Q738.441 2307.74 741.496 2312.35 Q744.575 2316.93 744.575 2325.68 Q744.575 2334.41 741.496 2339.02 Q738.441 2343.6 732.631 2343.6 Q726.821 2343.6 723.742 2339.02 Q720.686 2334.41 720.686 2325.68 Q720.686 2316.93 723.742 2312.35 Q726.821 2307.74 732.631 2307.74 Z" fill="#000000" fill-rule="nonzero" fill-opacity="1" /><path clip-path="url(#clip630)" d="M1022.93 2338.99 L1030.57 2338.99 L1030.57 2312.63 L1022.26 2314.29 L1022.26 2310.03 L1030.52 2308.37 L1035.2 2308.37 L1035.2 2338.99 L1042.84 2338.99 L1042.84 2342.93 L1022.93 2342.93 L1022.93 2338.99 Z" fill="#000000" fill-rule="nonzero" fill-opacity="1" /><path clip-path="url(#clip630)" d="M1062.28 2311.45 Q1058.67 2311.45 1056.84 2315.01 Q1055.04 2318.55 1055.04 2325.68 Q1055.04 2332.79 1056.84 2336.35 Q1058.67 2339.9 1062.28 2339.9 Q1065.92 2339.9 1067.72 2336.35 Q1069.55 2332.79 1069.55 2325.68 Q1069.55 2318.55 1067.72 2315.01 Q1065.92 2311.45 1062.28 2311.45 M1062.28 2307.74 Q1068.09 2307.74 1071.15 2312.35 Q1074.23 2316.93 1074.23 2325.68 Q1074.23 2334.41 1071.15 2339.02 Q1068.09 2343.6 1062.28 2343.6 Q1056.47 2343.6 1053.39 2339.02 Q1050.34 2334.41 1050.34 2325.68 Q1050.34 2316.93 1053.39 2312.35 Q1056.47 2307.74 1062.28 2307.74 Z" fill="#000000" fill-rule="nonzero" fill-opacity="1" /><path clip-path="url(#clip630)" d="M1092.45 2311.45 Q1088.83 2311.45 1087.01 2315.01 Q1085.2 2318.55 1085.2 2325.68 Q1085.2 2332.79 1087.01 2336.35 Q1088.83 2339.9 1092.45 2339.9 Q1096.08 2339.9 1097.88 2336.35 Q1099.71 2332.79 1099.71 2325.68 Q1099.71 2318.55 1097.88 2315.01 Q1096.08 2311.45 1092.45 2311.45 M1092.45 2307.74 Q1098.26 2307.74 1101.31 2312.35 Q1104.39 2316.93 1104.39 2325.68 Q1104.39 2334.41 1101.31 2339.02 Q1098.26 2343.6 1092.45 2343.6 Q1086.63 2343.6 1083.56 2339.02 Q1080.5 2334.41 1080.5 2325.68 Q1080.5 2316.93 1083.56 2312.35 Q1086.63 2307.74 1092.45 2307.74 Z" fill="#000000" fill-rule="nonzero" fill-opacity="1" /><path clip-path="url(#clip630)" d="M1368.44 2338.99 L1376.08 2338.99 L1376.08 2312.63 L1367.77 2314.29 L1367.77 2310.03 L1376.03 2308.37 L1380.71 2308.37 L1380.71 2338.99 L1388.35 2338.99 L1388.35 2342.93 L1368.44 2342.93 L1368.44 2338.99 Z" fill="#000000" fill-rule="nonzero" fill-opacity="1" /><path clip-path="url(#clip630)" d="M1397.84 2308.37 L1416.19 2308.37 L1416.19 2312.3 L1402.12 2312.3 L1402.12 2320.78 Q1403.14 2320.43 1404.16 2320.27 Q1405.18 2320.08 1406.19 2320.08 Q1411.98 2320.08 1415.36 2323.25 Q1418.74 2326.42 1418.74 2331.84 Q1418.74 2337.42 1415.27 2340.52 Q1411.8 2343.6 1405.48 2343.6 Q1403.3 2343.6 1401.03 2343.23 Q1398.79 2342.86 1396.38 2342.12 L1396.38 2337.42 Q1398.46 2338.55 1400.69 2339.11 Q1402.91 2339.66 1405.38 2339.66 Q1409.39 2339.66 1411.73 2337.56 Q1414.07 2335.45 1414.07 2331.84 Q1414.07 2328.23 1411.73 2326.12 Q1409.39 2324.02 1405.38 2324.02 Q1403.51 2324.02 1401.63 2324.43 Q1399.78 2324.85 1397.84 2325.73 L1397.84 2308.37 Z" fill="#000000" fill-rule="nonzero" fill-opacity="1" /><path clip-path="url(#clip630)" d="M1437.95 2311.45 Q1434.34 2311.45 1432.51 2315.01 Q1430.71 2318.55 1430.71 2325.68 Q1430.71 2332.79 1432.51 2336.35 Q1434.34 2339.9 1437.95 2339.9 Q1441.59 2339.9 1443.39 2336.35 Q1445.22 2332.79 1445.22 2325.68 Q1445.22 2318.55 1443.39 2315.01 Q1441.59 2311.45 1437.95 2311.45 M1437.95 2307.74 Q1443.76 2307.74 1446.82 2312.35 Q1449.9 2316.93 1449.9 2325.68 Q1449.9 2334.41 1446.82 2339.02 Q1443.76 2343.6 1437.95 2343.6 Q1432.14 2343.6 1429.07 2339.02 Q1426.01 2334.41 1426.01 2325.68 Q1426.01 2316.93 1429.07 2312.35 Q1432.14 2307.74 1437.95 2307.74 Z" fill="#000000" fill-rule="nonzero" fill-opacity="1" /><polyline clip-path="url(#clip632)" style="stroke:#000000; stroke-linecap:round; stroke-linejoin:round; stroke-width:2; stroke-opacity:0.1; fill:none" points="344.597,2211.1 1567.84,2211.1 "/>
<polyline clip-path="url(#clip632)" style="stroke:#000000; stroke-linecap:round; stroke-linejoin:round; stroke-width:2; stroke-opacity:0.1; fill:none" points="344.597,1834.87 1567.84,1834.87 "/>
<polyline clip-path="url(#clip632)" style="stroke:#000000; stroke-linecap:round; stroke-linejoin:round; stroke-width:2; stroke-opacity:0.1; fill:none" points="344.597,1458.64 1567.84,1458.64 "/>
<polyline clip-path="url(#clip632)" style="stroke:#000000; stroke-linecap:round; stroke-linejoin:round; stroke-width:2; stroke-opacity:0.1; fill:none" points="344.597,1082.4 1567.84,1082.4 "/>
<polyline clip-path="url(#clip632)" style="stroke:#000000; stroke-linecap:round; stroke-linejoin:round; stroke-width:2; stroke-opacity:0.1; fill:none" points="344.597,706.168 1567.84,706.168 "/>
<polyline clip-path="url(#clip632)" style="stroke:#000000; stroke-linecap:round; stroke-linejoin:round; stroke-width:2; stroke-opacity:0.1; fill:none" points="344.597,329.935 1567.84,329.935 "/>
<polyline clip-path="url(#clip630)" style="stroke:#000000; stroke-linecap:round; stroke-linejoin:round; stroke-width:4; stroke-opacity:1; fill:none" points="344.597,2274.13 344.597,47.2441 "/>
<polyline clip-path="url(#clip630)" style="stroke:#000000; stroke-linecap:round; stroke-linejoin:round; stroke-width:4; stroke-opacity:1; fill:none" points="344.597,2211.1 363.495,2211.1 "/>
<polyline clip-path="url(#clip630)" style="stroke:#000000; stroke-linecap:round; stroke-linejoin:round; stroke-width:4; stroke-opacity:1; fill:none" points="344.597,1834.87 363.495,1834.87 "/>
<polyline clip-path="url(#clip630)" style="stroke:#000000; stroke-linecap:round; stroke-linejoin:round; stroke-width:4; stroke-opacity:1; fill:none" points="344.597,1458.64 363.495,1458.64 "/>
<polyline clip-path="url(#clip630)" style="stroke:#000000; stroke-linecap:round; stroke-linejoin:round; stroke-width:4; stroke-opacity:1; fill:none" points="344.597,1082.4 363.495,1082.4 "/>
<polyline clip-path="url(#clip630)" style="stroke:#000000; stroke-linecap:round; stroke-linejoin:round; stroke-width:4; stroke-opacity:1; fill:none" points="344.597,706.168 363.495,706.168 "/>
<polyline clip-path="url(#clip630)" style="stroke:#000000; stroke-linecap:round; stroke-linejoin:round; stroke-width:4; stroke-opacity:1; fill:none" points="344.597,329.935 363.495,329.935 "/>
<path clip-path="url(#clip630)" d="M284.653 2196.9 Q281.042 2196.9 279.213 2200.47 Q277.408 2204.01 277.408 2211.14 Q277.408 2218.24 279.213 2221.81 Q281.042 2225.35 284.653 2225.35 Q288.287 2225.35 290.093 2221.81 Q291.921 2218.24 291.921 2211.14 Q291.921 2204.01 290.093 2200.47 Q288.287 2196.9 284.653 2196.9 M284.653 2193.2 Q290.463 2193.2 293.519 2197.8 Q296.597 2202.39 296.597 2211.14 Q296.597 2219.86 293.519 2224.47 Q290.463 2229.05 284.653 2229.05 Q278.843 2229.05 275.764 2224.47 Q272.709 2219.86 272.709 2211.14 Q272.709 2202.39 275.764 2197.8 Q278.843 2193.2 284.653 2193.2 Z" fill="#000000" fill-rule="nonzero" fill-opacity="1" /><path clip-path="url(#clip630)" d="M52.6171 1854.66 L68.9365 1854.66 L68.9365 1858.6 L46.9921 1858.6 L46.9921 1854.66 Q49.6541 1851.91 54.2375 1847.28 Q58.8439 1842.62 60.0245 1841.28 Q62.2698 1838.76 63.1494 1837.02 Q64.0522 1835.26 64.0522 1833.57 Q64.0522 1830.82 62.1078 1829.08 Q60.1865 1827.35 57.0847 1827.35 Q54.8856 1827.35 52.4319 1828.11 Q50.0014 1828.87 47.2236 1830.43 L47.2236 1825.7 Q50.0477 1824.57 52.5014 1823.99 Q54.955 1823.41 56.9921 1823.41 Q62.3624 1823.41 65.5568 1826.1 Q68.7513 1828.78 68.7513 1833.27 Q68.7513 1835.4 67.9411 1837.32 Q67.1541 1839.22 65.0476 1841.81 Q64.4689 1842.49 61.367 1845.7 Q58.2652 1848.9 52.6171 1854.66 Z" fill="#000000" fill-rule="nonzero" fill-opacity="1" /><path clip-path="url(#clip630)" d="M78.7512 1852.72 L83.6354 1852.72 L83.6354 1858.6 L78.7512 1858.6 L78.7512 1852.72 Z" fill="#000000" fill-rule="nonzero" fill-opacity="1" /><path clip-path="url(#clip630)" d="M93.8669 1824.04 L112.223 1824.04 L112.223 1827.97 L98.1493 1827.97 L98.1493 1836.44 Q99.1678 1836.1 100.186 1835.93 Q101.205 1835.75 102.223 1835.75 Q108.01 1835.75 111.39 1838.92 Q114.77 1842.09 114.77 1847.51 Q114.77 1853.09 111.297 1856.19 Q107.825 1859.27 101.506 1859.27 Q99.3298 1859.27 97.0613 1858.9 Q94.8159 1858.53 92.4085 1857.79 L92.4085 1853.09 Q94.4919 1854.22 96.7141 1854.78 Q98.9363 1855.33 101.413 1855.33 Q105.418 1855.33 107.756 1853.23 Q110.094 1851.12 110.094 1847.51 Q110.094 1843.9 107.756 1841.79 Q105.418 1839.68 101.413 1839.68 Q99.5381 1839.68 97.6632 1840.1 Q95.8113 1840.52 93.8669 1841.4 L93.8669 1824.04 Z" fill="#000000" fill-rule="nonzero" fill-opacity="1" /><path clip-path="url(#clip630)" d="M133.982 1827.12 Q130.371 1827.12 128.543 1830.68 Q126.737 1834.22 126.737 1841.35 Q126.737 1848.46 128.543 1852.02 Q130.371 1855.56 133.982 1855.56 Q137.617 1855.56 139.422 1852.02 Q141.251 1848.46 141.251 1841.35 Q141.251 1834.22 139.422 1830.68 Q137.617 1827.12 133.982 1827.12 M133.982 1823.41 Q139.793 1823.41 142.848 1828.02 Q145.927 1832.6 145.927 1841.35 Q145.927 1850.08 142.848 1854.68 Q139.793 1859.27 133.982 1859.27 Q128.172 1859.27 125.094 1854.68 Q122.038 1850.08 122.038 1841.35 Q122.038 1832.6 125.094 1828.02 Q128.172 1823.41 133.982 1823.41 Z" fill="#000000" fill-rule="nonzero" fill-opacity="1" /><path clip-path="url(#clip630)" d="M164.144 1827.12 Q160.533 1827.12 158.704 1830.68 Q156.899 1834.22 156.899 1841.35 Q156.899 1848.46 158.704 1852.02 Q160.533 1855.56 164.144 1855.56 Q167.779 1855.56 169.584 1852.02 Q171.413 1848.46 171.413 1841.35 Q171.413 1834.22 169.584 1830.68 Q167.779 1827.12 164.144 1827.12 M164.144 1823.41 Q169.954 1823.41 173.01 1828.02 Q176.089 1832.6 176.089 1841.35 Q176.089 1850.08 173.01 1854.68 Q169.954 1859.27 164.144 1859.27 Q158.334 1859.27 155.255 1854.68 Q152.2 1850.08 152.2 1841.35 Q152.2 1832.6 155.255 1828.02 Q158.334 1823.41 164.144 1823.41 Z" fill="#000000" fill-rule="nonzero" fill-opacity="1" /><path clip-path="url(#clip630)" d="M212.477 1833.13 L201.899 1843.76 L212.477 1854.34 L209.723 1857.14 L199.098 1846.51 L188.473 1857.14 L185.741 1854.34 L196.297 1843.76 L185.741 1833.13 L188.473 1830.33 L199.098 1840.96 L209.723 1830.33 L212.477 1833.13 Z" fill="#000000" fill-rule="nonzero" fill-opacity="1" /><path clip-path="url(#clip630)" d="M224.838 1854.66 L232.477 1854.66 L232.477 1828.3 L224.167 1829.96 L224.167 1825.7 L232.431 1824.04 L237.107 1824.04 L237.107 1854.66 L244.746 1854.66 L244.746 1858.6 L224.838 1858.6 L224.838 1854.66 Z" fill="#000000" fill-rule="nonzero" fill-opacity="1" /><path clip-path="url(#clip630)" d="M264.19 1827.12 Q260.579 1827.12 258.75 1830.68 Q256.945 1834.22 256.945 1841.35 Q256.945 1848.46 258.75 1852.02 Q260.579 1855.56 264.19 1855.56 Q267.824 1855.56 269.63 1852.02 Q271.459 1848.46 271.459 1841.35 Q271.459 1834.22 269.63 1830.68 Q267.824 1827.12 264.19 1827.12 M264.19 1823.41 Q270 1823.41 273.056 1828.02 Q276.134 1832.6 276.134 1841.35 Q276.134 1850.08 273.056 1854.68 Q270 1859.27 264.19 1859.27 Q258.38 1859.27 255.301 1854.68 Q252.246 1850.08 252.246 1841.35 Q252.246 1832.6 255.301 1828.02 Q258.38 1823.41 264.19 1823.41 Z" fill="#000000" fill-rule="nonzero" fill-opacity="1" /><path clip-path="url(#clip630)" d="M288.811 1806.42 L279.219 1821.41 L288.811 1821.41 L288.811 1806.42 M287.814 1803.11 L292.591 1803.11 L292.591 1821.41 L296.597 1821.41 L296.597 1824.57 L292.591 1824.57 L292.591 1831.19 L288.811 1831.19 L288.811 1824.57 L276.134 1824.57 L276.134 1820.9 L287.814 1803.11 Z" fill="#000000" fill-rule="nonzero" fill-opacity="1" /><path clip-path="url(#clip630)" d="M48.6356 1447.8 L66.992 1447.8 L66.992 1451.74 L52.918 1451.74 L52.918 1460.21 Q53.9365 1459.86 54.955 1459.7 Q55.9736 1459.52 56.9921 1459.52 Q62.7791 1459.52 66.1587 1462.69 Q69.5383 1465.86 69.5383 1471.28 Q69.5383 1476.85 66.0661 1479.96 Q62.5939 1483.03 56.2745 1483.03 Q54.0986 1483.03 51.8301 1482.66 Q49.5847 1482.29 47.1773 1481.55 L47.1773 1476.85 Q49.2606 1477.99 51.4828 1478.54 Q53.7051 1479.1 56.1819 1479.1 Q60.1865 1479.1 62.5245 1476.99 Q64.8624 1474.89 64.8624 1471.28 Q64.8624 1467.66 62.5245 1465.56 Q60.1865 1463.45 56.1819 1463.45 Q54.3069 1463.45 52.4319 1463.87 Q50.5801 1464.28 48.6356 1465.16 L48.6356 1447.8 Z" fill="#000000" fill-rule="nonzero" fill-opacity="1" /><path clip-path="url(#clip630)" d="M78.7512 1476.48 L83.6354 1476.48 L83.6354 1482.36 L78.7512 1482.36 L78.7512 1476.48 Z" fill="#000000" fill-rule="nonzero" fill-opacity="1" /><path clip-path="url(#clip630)" d="M103.821 1450.88 Q100.209 1450.88 98.3807 1454.45 Q96.5752 1457.99 96.5752 1465.12 Q96.5752 1472.22 98.3807 1475.79 Q100.209 1479.33 103.821 1479.33 Q107.455 1479.33 109.26 1475.79 Q111.089 1472.22 111.089 1465.12 Q111.089 1457.99 109.26 1454.45 Q107.455 1450.88 103.821 1450.88 M103.821 1447.18 Q109.631 1447.18 112.686 1451.78 Q115.765 1456.37 115.765 1465.12 Q115.765 1473.84 112.686 1478.45 Q109.631 1483.03 103.821 1483.03 Q98.0104 1483.03 94.9317 1478.45 Q91.8761 1473.84 91.8761 1465.12 Q91.8761 1456.37 94.9317 1451.78 Q98.0104 1447.18 103.821 1447.18 Z" fill="#000000" fill-rule="nonzero" fill-opacity="1" /><path clip-path="url(#clip630)" d="M133.982 1450.88 Q130.371 1450.88 128.543 1454.45 Q126.737 1457.99 126.737 1465.12 Q126.737 1472.22 128.543 1475.79 Q130.371 1479.33 133.982 1479.33 Q137.617 1479.33 139.422 1475.79 Q141.251 1472.22 141.251 1465.12 Q141.251 1457.99 139.422 1454.45 Q137.617 1450.88 133.982 1450.88 M133.982 1447.18 Q139.793 1447.18 142.848 1451.78 Q145.927 1456.37 145.927 1465.12 Q145.927 1473.84 142.848 1478.45 Q139.793 1483.03 133.982 1483.03 Q128.172 1483.03 125.094 1478.45 Q122.038 1473.84 122.038 1465.12 Q122.038 1456.37 125.094 1451.78 Q128.172 1447.18 133.982 1447.18 Z" fill="#000000" fill-rule="nonzero" fill-opacity="1" /><path clip-path="url(#clip630)" d="M164.144 1450.88 Q160.533 1450.88 158.704 1454.45 Q156.899 1457.99 156.899 1465.12 Q156.899 1472.22 158.704 1475.79 Q160.533 1479.33 164.144 1479.33 Q167.779 1479.33 169.584 1475.79 Q171.413 1472.22 171.413 1465.12 Q171.413 1457.99 169.584 1454.45 Q167.779 1450.88 164.144 1450.88 M164.144 1447.18 Q169.954 1447.18 173.01 1451.78 Q176.089 1456.37 176.089 1465.12 Q176.089 1473.84 173.01 1478.45 Q169.954 1483.03 164.144 1483.03 Q158.334 1483.03 155.255 1478.45 Q152.2 1473.84 152.2 1465.12 Q152.2 1456.37 155.255 1451.78 Q158.334 1447.18 164.144 1447.18 Z" fill="#000000" fill-rule="nonzero" fill-opacity="1" /><path clip-path="url(#clip630)" d="M212.477 1456.9 L201.899 1467.53 L212.477 1478.1 L209.723 1480.9 L199.098 1470.28 L188.473 1480.9 L185.741 1478.1 L196.297 1467.53 L185.741 1456.9 L188.473 1454.1 L199.098 1464.72 L209.723 1454.1 L212.477 1456.9 Z" fill="#000000" fill-rule="nonzero" fill-opacity="1" /><path clip-path="url(#clip630)" d="M224.838 1478.43 L232.477 1478.43 L232.477 1452.06 L224.167 1453.73 L224.167 1449.47 L232.431 1447.8 L237.107 1447.8 L237.107 1478.43 L244.746 1478.43 L244.746 1482.36 L224.838 1482.36 L224.838 1478.43 Z" fill="#000000" fill-rule="nonzero" fill-opacity="1" /><path clip-path="url(#clip630)" d="M264.19 1450.88 Q260.579 1450.88 258.75 1454.45 Q256.945 1457.99 256.945 1465.12 Q256.945 1472.22 258.75 1475.79 Q260.579 1479.33 264.19 1479.33 Q267.824 1479.33 269.63 1475.79 Q271.459 1472.22 271.459 1465.12 Q271.459 1457.99 269.63 1454.45 Q267.824 1450.88 264.19 1450.88 M264.19 1447.18 Q270 1447.18 273.056 1451.78 Q276.134 1456.37 276.134 1465.12 Q276.134 1473.84 273.056 1478.45 Q270 1483.03 264.19 1483.03 Q258.38 1483.03 255.301 1478.45 Q252.246 1473.84 252.246 1465.12 Q252.246 1456.37 255.301 1451.78 Q258.38 1447.18 264.19 1447.18 Z" fill="#000000" fill-rule="nonzero" fill-opacity="1" /><path clip-path="url(#clip630)" d="M288.811 1430.18 L279.219 1445.17 L288.811 1445.17 L288.811 1430.18 M287.814 1426.87 L292.591 1426.87 L292.591 1445.17 L296.597 1445.17 L296.597 1448.33 L292.591 1448.33 L292.591 1454.95 L288.811 1454.95 L288.811 1448.33 L276.134 1448.33 L276.134 1444.67 L287.814 1426.87 Z" fill="#000000" fill-rule="nonzero" fill-opacity="1" /><path clip-path="url(#clip630)" d="M47.4088 1071.57 L69.6309 1071.57 L69.6309 1073.56 L57.0847 1106.13 L52.2004 1106.13 L64.0059 1075.5 L47.4088 1075.5 L47.4088 1071.57 Z" fill="#000000" fill-rule="nonzero" fill-opacity="1" /><path clip-path="url(#clip630)" d="M78.7512 1100.25 L83.6354 1100.25 L83.6354 1106.13 L78.7512 1106.13 L78.7512 1100.25 Z" fill="#000000" fill-rule="nonzero" fill-opacity="1" /><path clip-path="url(#clip630)" d="M93.8669 1071.57 L112.223 1071.57 L112.223 1075.5 L98.1493 1075.5 L98.1493 1083.98 Q99.1678 1083.63 100.186 1083.47 Q101.205 1083.28 102.223 1083.28 Q108.01 1083.28 111.39 1086.45 Q114.77 1089.63 114.77 1095.04 Q114.77 1100.62 111.297 1103.72 Q107.825 1106.8 101.506 1106.8 Q99.3298 1106.8 97.0613 1106.43 Q94.8159 1106.06 92.4085 1105.32 L92.4085 1100.62 Q94.4919 1101.75 96.7141 1102.31 Q98.9363 1102.87 101.413 1102.87 Q105.418 1102.87 107.756 1100.76 Q110.094 1098.65 110.094 1095.04 Q110.094 1091.43 107.756 1089.32 Q105.418 1087.22 101.413 1087.22 Q99.5381 1087.22 97.6632 1087.63 Q95.8113 1088.05 93.8669 1088.93 L93.8669 1071.57 Z" fill="#000000" fill-rule="nonzero" fill-opacity="1" /><path clip-path="url(#clip630)" d="M133.982 1074.65 Q130.371 1074.65 128.543 1078.21 Q126.737 1081.75 126.737 1088.88 Q126.737 1095.99 128.543 1099.56 Q130.371 1103.1 133.982 1103.1 Q137.617 1103.1 139.422 1099.56 Q141.251 1095.99 141.251 1088.88 Q141.251 1081.75 139.422 1078.21 Q137.617 1074.65 133.982 1074.65 M133.982 1070.94 Q139.793 1070.94 142.848 1075.55 Q145.927 1080.13 145.927 1088.88 Q145.927 1097.61 142.848 1102.22 Q139.793 1106.8 133.982 1106.8 Q128.172 1106.8 125.094 1102.22 Q122.038 1097.61 122.038 1088.88 Q122.038 1080.13 125.094 1075.55 Q128.172 1070.94 133.982 1070.94 Z" fill="#000000" fill-rule="nonzero" fill-opacity="1" /><path clip-path="url(#clip630)" d="M164.144 1074.65 Q160.533 1074.65 158.704 1078.21 Q156.899 1081.75 156.899 1088.88 Q156.899 1095.99 158.704 1099.56 Q160.533 1103.1 164.144 1103.1 Q167.779 1103.1 169.584 1099.56 Q171.413 1095.99 171.413 1088.88 Q171.413 1081.75 169.584 1078.21 Q167.779 1074.65 164.144 1074.65 M164.144 1070.94 Q169.954 1070.94 173.01 1075.55 Q176.089 1080.13 176.089 1088.88 Q176.089 1097.61 173.01 1102.22 Q169.954 1106.8 164.144 1106.8 Q158.334 1106.8 155.255 1102.22 Q152.2 1097.61 152.2 1088.88 Q152.2 1080.13 155.255 1075.55 Q158.334 1070.94 164.144 1070.94 Z" fill="#000000" fill-rule="nonzero" fill-opacity="1" /><path clip-path="url(#clip630)" d="M212.477 1080.67 L201.899 1091.29 L212.477 1101.87 L209.723 1104.67 L199.098 1094.05 L188.473 1104.67 L185.741 1101.87 L196.297 1091.29 L185.741 1080.67 L188.473 1077.87 L199.098 1088.49 L209.723 1077.87 L212.477 1080.67 Z" fill="#000000" fill-rule="nonzero" fill-opacity="1" /><path clip-path="url(#clip630)" d="M224.838 1102.19 L232.477 1102.19 L232.477 1075.83 L224.167 1077.5 L224.167 1073.24 L232.431 1071.57 L237.107 1071.57 L237.107 1102.19 L244.746 1102.19 L244.746 1106.13 L224.838 1106.13 L224.838 1102.19 Z" fill="#000000" fill-rule="nonzero" fill-opacity="1" /><path clip-path="url(#clip630)" d="M264.19 1074.65 Q260.579 1074.65 258.75 1078.21 Q256.945 1081.75 256.945 1088.88 Q256.945 1095.99 258.75 1099.56 Q260.579 1103.1 264.19 1103.1 Q267.824 1103.1 269.63 1099.56 Q271.459 1095.99 271.459 1088.88 Q271.459 1081.75 269.63 1078.21 Q267.824 1074.65 264.19 1074.65 M264.19 1070.94 Q270 1070.94 273.056 1075.55 Q276.134 1080.13 276.134 1088.88 Q276.134 1097.61 273.056 1102.22 Q270 1106.8 264.19 1106.8 Q258.38 1106.8 255.301 1102.22 Q252.246 1097.61 252.246 1088.88 Q252.246 1080.13 255.301 1075.55 Q258.38 1070.94 264.19 1070.94 Z" fill="#000000" fill-rule="nonzero" fill-opacity="1" /><path clip-path="url(#clip630)" d="M288.811 1053.95 L279.219 1068.94 L288.811 1068.94 L288.811 1053.95 M287.814 1050.64 L292.591 1050.64 L292.591 1068.94 L296.597 1068.94 L296.597 1072.1 L292.591 1072.1 L292.591 1078.72 L288.811 1078.72 L288.811 1072.1 L276.134 1072.1 L276.134 1068.43 L287.814 1050.64 Z" fill="#000000" fill-rule="nonzero" fill-opacity="1" /><path clip-path="url(#clip630)" d="M51.6941 725.961 L59.3329 725.961 L59.3329 699.595 L51.0228 701.262 L51.0228 697.003 L59.2866 695.336 L63.9625 695.336 L63.9625 725.961 L71.6014 725.961 L71.6014 729.896 L51.6941 729.896 L51.6941 725.961 Z" fill="#000000" fill-rule="nonzero" fill-opacity="1" /><path clip-path="url(#clip630)" d="M81.0458 724.016 L85.93 724.016 L85.93 729.896 L81.0458 729.896 L81.0458 724.016 Z" fill="#000000" fill-rule="nonzero" fill-opacity="1" /><path clip-path="url(#clip630)" d="M106.115 698.415 Q102.504 698.415 100.675 701.98 Q98.8697 705.521 98.8697 712.651 Q98.8697 719.757 100.675 723.322 Q102.504 726.864 106.115 726.864 Q109.749 726.864 111.555 723.322 Q113.384 719.757 113.384 712.651 Q113.384 705.521 111.555 701.98 Q109.749 698.415 106.115 698.415 M106.115 694.711 Q111.925 694.711 114.981 699.318 Q118.059 703.901 118.059 712.651 Q118.059 721.378 114.981 725.984 Q111.925 730.567 106.115 730.567 Q100.305 730.567 97.2262 725.984 Q94.1707 721.378 94.1707 712.651 Q94.1707 703.901 97.2262 699.318 Q100.305 694.711 106.115 694.711 Z" fill="#000000" fill-rule="nonzero" fill-opacity="1" /><path clip-path="url(#clip630)" d="M136.277 698.415 Q132.666 698.415 130.837 701.98 Q129.032 705.521 129.032 712.651 Q129.032 719.757 130.837 723.322 Q132.666 726.864 136.277 726.864 Q139.911 726.864 141.717 723.322 Q143.545 719.757 143.545 712.651 Q143.545 705.521 141.717 701.98 Q139.911 698.415 136.277 698.415 M136.277 694.711 Q142.087 694.711 145.143 699.318 Q148.221 703.901 148.221 712.651 Q148.221 721.378 145.143 725.984 Q142.087 730.567 136.277 730.567 Q130.467 730.567 127.388 725.984 Q124.333 721.378 124.333 712.651 Q124.333 703.901 127.388 699.318 Q130.467 694.711 136.277 694.711 Z" fill="#000000" fill-rule="nonzero" fill-opacity="1" /><path clip-path="url(#clip630)" d="M166.439 698.415 Q162.828 698.415 160.999 701.98 Q159.193 705.521 159.193 712.651 Q159.193 719.757 160.999 723.322 Q162.828 726.864 166.439 726.864 Q170.073 726.864 171.879 723.322 Q173.707 719.757 173.707 712.651 Q173.707 705.521 171.879 701.98 Q170.073 698.415 166.439 698.415 M166.439 694.711 Q172.249 694.711 175.305 699.318 Q178.383 703.901 178.383 712.651 Q178.383 721.378 175.305 725.984 Q172.249 730.567 166.439 730.567 Q160.629 730.567 157.55 725.984 Q154.494 721.378 154.494 712.651 Q154.494 703.901 157.55 699.318 Q160.629 694.711 166.439 694.711 Z" fill="#000000" fill-rule="nonzero" fill-opacity="1" /><path clip-path="url(#clip630)" d="M214.772 704.433 L204.193 715.058 L214.772 725.637 L212.017 728.438 L201.392 717.813 L190.767 728.438 L188.036 725.637 L198.591 715.058 L188.036 704.433 L190.767 701.632 L201.392 712.257 L212.017 701.632 L214.772 704.433 Z" fill="#000000" fill-rule="nonzero" fill-opacity="1" /><path clip-path="url(#clip630)" d="M227.133 725.961 L234.772 725.961 L234.772 699.595 L226.462 701.262 L226.462 697.003 L234.725 695.336 L239.401 695.336 L239.401 725.961 L247.04 725.961 L247.04 729.896 L227.133 729.896 L227.133 725.961 Z" fill="#000000" fill-rule="nonzero" fill-opacity="1" /><path clip-path="url(#clip630)" d="M266.485 698.415 Q262.873 698.415 261.045 701.98 Q259.239 705.521 259.239 712.651 Q259.239 719.757 261.045 723.322 Q262.873 726.864 266.485 726.864 Q270.119 726.864 271.924 723.322 Q273.753 719.757 273.753 712.651 Q273.753 705.521 271.924 701.98 Q270.119 698.415 266.485 698.415 M266.485 694.711 Q272.295 694.711 275.35 699.318 Q278.429 703.901 278.429 712.651 Q278.429 721.378 275.35 725.984 Q272.295 730.567 266.485 730.567 Q260.674 730.567 257.596 725.984 Q254.54 721.378 254.54 712.651 Q254.54 703.901 257.596 699.318 Q260.674 694.711 266.485 694.711 Z" fill="#000000" fill-rule="nonzero" fill-opacity="1" /><path clip-path="url(#clip630)" d="M279.614 674.406 L294.528 674.406 L294.528 677.603 L283.093 677.603 L283.093 684.487 Q283.921 684.205 284.748 684.073 Q285.576 683.922 286.403 683.922 Q291.105 683.922 293.851 686.499 Q296.597 689.076 296.597 693.477 Q296.597 698.009 293.776 700.53 Q290.955 703.031 285.82 703.031 Q284.052 703.031 282.209 702.73 Q280.385 702.429 278.429 701.827 L278.429 698.009 Q280.122 698.931 281.927 699.382 Q283.733 699.834 285.745 699.834 Q288.999 699.834 290.899 698.122 Q292.798 696.411 292.798 693.477 Q292.798 690.543 290.899 688.831 Q288.999 687.12 285.745 687.12 Q284.222 687.12 282.698 687.458 Q281.194 687.797 279.614 688.512 L279.614 674.406 Z" fill="#000000" fill-rule="nonzero" fill-opacity="1" /><path clip-path="url(#clip630)" d="M51.6941 349.727 L59.3329 349.727 L59.3329 323.362 L51.0228 325.028 L51.0228 320.769 L59.2866 319.102 L63.9625 319.102 L63.9625 349.727 L71.6014 349.727 L71.6014 353.662 L51.6941 353.662 L51.6941 349.727 Z" fill="#000000" fill-rule="nonzero" fill-opacity="1" /><path clip-path="url(#clip630)" d="M81.0458 347.783 L85.93 347.783 L85.93 353.662 L81.0458 353.662 L81.0458 347.783 Z" fill="#000000" fill-rule="nonzero" fill-opacity="1" /><path clip-path="url(#clip630)" d="M100.143 349.727 L116.462 349.727 L116.462 353.662 L94.5179 353.662 L94.5179 349.727 Q97.1799 346.973 101.763 342.343 Q106.37 337.69 107.55 336.348 Q109.796 333.825 110.675 332.089 Q111.578 330.329 111.578 328.639 Q111.578 325.885 109.634 324.149 Q107.712 322.413 104.61 322.413 Q102.411 322.413 99.9577 323.177 Q97.5272 323.94 94.7494 325.491 L94.7494 320.769 Q97.5735 319.635 100.027 319.056 Q102.481 318.477 104.518 318.477 Q109.888 318.477 113.083 321.163 Q116.277 323.848 116.277 328.339 Q116.277 330.468 115.467 332.389 Q114.68 334.288 112.573 336.88 Q111.995 337.551 108.893 340.769 Q105.791 343.963 100.143 349.727 Z" fill="#000000" fill-rule="nonzero" fill-opacity="1" /><path clip-path="url(#clip630)" d="M126.323 319.102 L144.68 319.102 L144.68 323.038 L130.606 323.038 L130.606 331.51 Q131.624 331.163 132.643 331.001 Q133.661 330.815 134.68 330.815 Q140.467 330.815 143.846 333.987 Q147.226 337.158 147.226 342.575 Q147.226 348.153 143.754 351.255 Q140.282 354.334 133.962 354.334 Q131.786 354.334 129.518 353.963 Q127.272 353.593 124.865 352.852 L124.865 348.153 Q126.948 349.288 129.171 349.843 Q131.393 350.399 133.87 350.399 Q137.874 350.399 140.212 348.292 Q142.55 346.186 142.55 342.575 Q142.55 338.963 140.212 336.857 Q137.874 334.751 133.87 334.751 Q131.995 334.751 130.12 335.167 Q128.268 335.584 126.323 336.463 L126.323 319.102 Z" fill="#000000" fill-rule="nonzero" fill-opacity="1" /><path clip-path="url(#clip630)" d="M166.439 322.181 Q162.828 322.181 160.999 325.746 Q159.193 329.288 159.193 336.417 Q159.193 343.524 160.999 347.088 Q162.828 350.63 166.439 350.63 Q170.073 350.63 171.879 347.088 Q173.707 343.524 173.707 336.417 Q173.707 329.288 171.879 325.746 Q170.073 322.181 166.439 322.181 M166.439 318.477 Q172.249 318.477 175.305 323.084 Q178.383 327.667 178.383 336.417 Q178.383 345.144 175.305 349.75 Q172.249 354.334 166.439 354.334 Q160.629 354.334 157.55 349.75 Q154.494 345.144 154.494 336.417 Q154.494 327.667 157.55 323.084 Q160.629 318.477 166.439 318.477 Z" fill="#000000" fill-rule="nonzero" fill-opacity="1" /><path clip-path="url(#clip630)" d="M214.772 328.2 L204.193 338.825 L214.772 349.403 L212.017 352.204 L201.392 341.579 L190.767 352.204 L188.036 349.403 L198.591 338.825 L188.036 328.2 L190.767 325.399 L201.392 336.024 L212.017 325.399 L214.772 328.2 Z" fill="#000000" fill-rule="nonzero" fill-opacity="1" /><path clip-path="url(#clip630)" d="M227.133 349.727 L234.772 349.727 L234.772 323.362 L226.462 325.028 L226.462 320.769 L234.725 319.102 L239.401 319.102 L239.401 349.727 L247.04 349.727 L247.04 353.662 L227.133 353.662 L227.133 349.727 Z" fill="#000000" fill-rule="nonzero" fill-opacity="1" /><path clip-path="url(#clip630)" d="M266.485 322.181 Q262.873 322.181 261.045 325.746 Q259.239 329.288 259.239 336.417 Q259.239 343.524 261.045 347.088 Q262.873 350.63 266.485 350.63 Q270.119 350.63 271.924 347.088 Q273.753 343.524 273.753 336.417 Q273.753 329.288 271.924 325.746 Q270.119 322.181 266.485 322.181 M266.485 318.477 Q272.295 318.477 275.35 323.084 Q278.429 327.667 278.429 336.417 Q278.429 345.144 275.35 349.75 Q272.295 354.334 266.485 354.334 Q260.674 354.334 257.596 349.75 Q254.54 345.144 254.54 336.417 Q254.54 327.667 257.596 323.084 Q260.674 318.477 266.485 318.477 Z" fill="#000000" fill-rule="nonzero" fill-opacity="1" /><path clip-path="url(#clip630)" d="M279.614 298.172 L294.528 298.172 L294.528 301.369 L283.093 301.369 L283.093 308.253 Q283.921 307.971 284.748 307.839 Q285.576 307.689 286.403 307.689 Q291.105 307.689 293.851 310.265 Q296.597 312.842 296.597 317.243 Q296.597 321.776 293.776 324.296 Q290.955 326.798 285.82 326.798 Q284.052 326.798 282.209 326.497 Q280.385 326.196 278.429 325.594 L278.429 321.776 Q280.122 322.697 281.927 323.149 Q283.733 323.6 285.745 323.6 Q288.999 323.6 290.899 321.889 Q292.798 320.177 292.798 317.243 Q292.798 314.309 290.899 312.598 Q288.999 310.886 285.745 310.886 Q284.222 310.886 282.698 311.225 Q281.194 311.563 279.614 312.278 L279.614 298.172 Z" fill="#000000" fill-rule="nonzero" fill-opacity="1" /><polyline clip-path="url(#clip632)" style="stroke:#009af9; stroke-linecap:round; stroke-linejoin:round; stroke-width:4; stroke-opacity:1; fill:none" points="379.217,2211.1 386.127,2211.1 393.038,2211.1 399.948,2211.1 406.858,2211.1 413.768,2211.1 420.678,2211.1 427.588,2211.1 434.499,2179.65 441.409,2089.58 448.319,1964.48 455.229,1817.22 462.139,1669.25 469.05,1556.31 475.96,1510.56 482.87,1509.13 489.78,1509.13 496.69,1509.13 503.6,1509.13 510.511,1509.13 517.421,1509.13 524.331,1509.13 531.241,1509.13 538.151,1509.13 545.062,1509.13 551.972,1509.13 558.882,1509.13 565.792,1509.13 572.702,1509.13 579.612,1509.13 586.523,1509.13 593.433,1509.13 600.343,1494.83 607.253,1456.94 614.163,1399.04 621.073,1328.27 627.984,1249.64 634.894,1185.3 641.804,1155.28 648.714,1153.13 655.624,1153.13 662.535,1153.13 669.445,1153.13 676.355,1153.13 683.265,1153.13 690.175,1153.13 697.085,1153.13 703.996,1153.13 710.906,1153.13 717.816,1153.13 724.726,1153.13 731.636,1153.13 738.546,1153.13 745.457,1153.13 752.367,1153.13 759.277,1153.13 766.187,1139.55 773.097,1100.24 780.008,1045.91 786.918,986.575 793.828,935.107 800.738,897.935 807.648,881.493 814.558,880.064 821.469,880.064 828.379,880.064 835.289,880.064 842.199,880.064 849.109,880.064 856.019,880.064 862.93,880.064 869.84,880.064 876.75,880.064 883.66,880.064 890.57,880.064 897.481,880.064 904.391,880.064 911.301,880.064 918.211,880.064 925.121,879.349 932.031,841.462 938.942,737.81 945.852,606.278 952.762,468.314 959.672,351.794 966.582,270.302 973.492,229.556 980.403,226.696 987.313,226.696 994.223,226.696 1001.13,226.696 1008.04,226.696 1014.95,226.696 1021.86,226.696 1028.77,226.696 1035.68,226.696 1042.59,226.696 1049.5,226.696 1056.41,226.696 1063.32,226.696 1070.23,226.696 1077.15,226.696 1084.06,226.696 1090.97,225.267 1097.88,210.514 1104.79,183.146 1111.7,154.872 1118.61,128.131 1125.52,110.269 1132.43,110.504 1139.34,151.866 1146.25,242.069 1153.16,367.232 1160.07,566.041 1166.98,760.434 1173.89,919.398 1180.8,998.728 1187.71,1017.18 1194.62,1017.18 1201.53,1017.18 1208.44,1017.18 1215.35,1017.18 1222.26,1017.18 1229.17,1017.18 1236.08,1017.18 1242.99,1017.18 1249.9,1017.18 1256.81,1015.75 1263.72,1023.74 1270.63,1020.53 1277.54,1012.58 1284.45,1000.72 1291.36,986.82 1298.27,977.438 1305.18,987.422 1312.09,1001.32 1319,1020.12 1325.91,1102.39 1332.82,1168.78 1339.73,1204.98 1346.64,1204.98 1353.55,1204.98 1360.46,1204.98 1367.37,1204.98 1374.28,1204.98 1381.19,1204.98 1388.1,1204.98 1395.01,1204.98 1401.92,1204.98 1408.83,1204.98 1415.74,1204.98 1422.65,1254.37 1429.56,1329.06 1436.47,1367.4 1443.38,1392.81 1450.29,1411.34 1457.2,1432.93 1464.12,1466.08 1471.03,1523.71 1477.94,1609.04 1484.85,1713.33 1491.76,1879.7 1498.67,2037.76 1505.58,2160.63 1512.49,2211.1 1519.4,2211.1 1526.31,2211.1 1533.22,2211.1 "/>
<path clip-path="url(#clip630)" d="M385.372 199.234 L811.201 199.234 L811.201 121.474 L385.372 121.474  Z" fill="#ffffff" fill-rule="evenodd" fill-opacity="1"/>
<polyline clip-path="url(#clip630)" style="stroke:#000000; stroke-linecap:round; stroke-linejoin:round; stroke-width:4; stroke-opacity:1; fill:none" points="385.372,199.234 811.201,199.234 811.201,121.474 385.372,121.474 385.372,199.234 "/>
<polyline clip-path="url(#clip630)" style="stroke:#009af9; stroke-linecap:round; stroke-linejoin:round; stroke-width:3; stroke-opacity:1; fill:none" points="398.963,160.354 480.513,160.354 "/>
<path clip-path="url(#clip630)" d="M505.979 150.848 L501.222 163.748 L510.754 163.748 L505.979 150.848 M504 147.394 L507.976 147.394 L517.854 173.314 L514.208 173.314 L511.847 166.664 L500.163 166.664 L497.802 173.314 L494.104 173.314 L504 147.394 Z" fill="#000000" fill-rule="nonzero" fill-opacity="1" /><path clip-path="url(#clip630)" d="M533.896 154.442 L533.896 157.463 Q532.542 156.769 531.083 156.421 Q529.625 156.074 528.062 156.074 Q525.684 156.074 524.486 156.803 Q523.306 157.532 523.306 158.991 Q523.306 160.102 524.156 160.744 Q525.007 161.369 527.576 161.942 L528.67 162.185 Q532.073 162.914 533.496 164.251 Q534.937 165.571 534.937 167.949 Q534.937 170.657 532.785 172.237 Q530.649 173.817 526.899 173.817 Q525.337 173.817 523.635 173.505 Q521.951 173.209 520.076 172.602 L520.076 169.303 Q521.847 170.223 523.566 170.692 Q525.285 171.143 526.969 171.143 Q529.226 171.143 530.441 170.38 Q531.656 169.598 531.656 168.192 Q531.656 166.89 530.771 166.196 Q529.903 165.501 526.934 164.859 L525.823 164.598 Q522.854 163.973 521.535 162.689 Q520.215 161.387 520.215 159.13 Q520.215 156.387 522.16 154.894 Q524.104 153.4 527.681 153.4 Q529.451 153.4 531.014 153.661 Q532.576 153.921 533.896 154.442 Z" fill="#000000" fill-rule="nonzero" fill-opacity="1" /><path clip-path="url(#clip630)" d="M552.819 163.366 Q552.819 159.893 551.378 157.984 Q549.955 156.074 547.368 156.074 Q544.799 156.074 543.358 157.984 Q541.934 159.893 541.934 163.366 Q541.934 166.821 543.358 168.73 Q544.799 170.64 547.368 170.64 Q549.955 170.64 551.378 168.73 Q552.819 166.821 552.819 163.366 M556.014 170.9 Q556.014 175.866 553.809 178.279 Q551.604 180.709 547.055 180.709 Q545.371 180.709 543.878 180.449 Q542.385 180.206 540.979 179.685 L540.979 176.577 Q542.385 177.341 543.757 177.706 Q545.128 178.07 546.552 178.07 Q549.694 178.07 551.257 176.421 Q552.819 174.789 552.819 171.473 L552.819 169.893 Q551.83 171.612 550.285 172.463 Q548.739 173.314 546.587 173.314 Q543.01 173.314 540.823 170.588 Q538.635 167.862 538.635 163.366 Q538.635 158.852 540.823 156.126 Q543.01 153.4 546.587 153.4 Q548.739 153.4 550.285 154.251 Q551.83 155.102 552.819 156.821 L552.819 153.869 L556.014 153.869 L556.014 170.9 Z" fill="#000000" fill-rule="nonzero" fill-opacity="1" /><path clip-path="url(#clip630)" d="M571.43 163.539 Q567.559 163.539 566.066 164.425 Q564.573 165.31 564.573 167.446 Q564.573 169.147 565.684 170.154 Q566.812 171.143 568.739 171.143 Q571.396 171.143 572.993 169.268 Q574.607 167.376 574.607 164.251 L574.607 163.539 L571.43 163.539 M577.802 162.22 L577.802 173.314 L574.607 173.314 L574.607 170.362 Q573.514 172.133 571.882 172.984 Q570.25 173.817 567.889 173.817 Q564.903 173.817 563.132 172.15 Q561.378 170.466 561.378 167.654 Q561.378 164.373 563.566 162.706 Q565.771 161.039 570.128 161.039 L574.607 161.039 L574.607 160.727 Q574.607 158.522 573.149 157.324 Q571.708 156.109 569.087 156.109 Q567.42 156.109 565.84 156.508 Q564.26 156.907 562.802 157.706 L562.802 154.755 Q564.555 154.078 566.205 153.748 Q567.854 153.4 569.416 153.4 Q573.635 153.4 575.718 155.588 Q577.802 157.775 577.802 162.22 Z" fill="#000000" fill-rule="nonzero" fill-opacity="1" /><path clip-path="url(#clip630)" d="M595.649 156.855 Q595.111 156.543 594.468 156.404 Q593.843 156.248 593.079 156.248 Q590.371 156.248 588.913 158.018 Q587.472 159.772 587.472 163.071 L587.472 173.314 L584.26 173.314 L584.26 153.869 L587.472 153.869 L587.472 156.89 Q588.479 155.119 590.093 154.269 Q591.708 153.4 594.017 153.4 Q594.347 153.4 594.746 153.453 Q595.145 153.487 595.632 153.574 L595.649 156.855 Z" fill="#000000" fill-rule="nonzero" fill-opacity="1" /><path clip-path="url(#clip630)" d="M611.17 156.821 L611.17 146.3 L614.364 146.3 L614.364 173.314 L611.17 173.314 L611.17 170.397 Q610.163 172.133 608.618 172.984 Q607.09 173.817 604.937 173.817 Q601.413 173.817 599.191 171.005 Q596.986 168.192 596.986 163.609 Q596.986 159.025 599.191 156.213 Q601.413 153.4 604.937 153.4 Q607.09 153.4 608.618 154.251 Q610.163 155.084 611.17 156.821 M600.284 163.609 Q600.284 167.133 601.725 169.147 Q603.184 171.143 605.718 171.143 Q608.253 171.143 609.711 169.147 Q611.17 167.133 611.17 163.609 Q611.17 160.084 609.711 158.088 Q608.253 156.074 605.718 156.074 Q603.184 156.074 601.725 158.088 Q600.284 160.084 600.284 163.609 Z" fill="#000000" fill-rule="nonzero" fill-opacity="1" /><path clip-path="url(#clip630)" d="M635.718 179.216 L635.718 181.699 L617.246 181.699 L617.246 179.216 L635.718 179.216 Z" fill="#000000" fill-rule="nonzero" fill-opacity="1" /><path clip-path="url(#clip630)" d="M642.367 160.935 L642.367 170.432 L647.992 170.432 Q650.822 170.432 652.176 169.268 Q653.548 168.088 653.548 165.675 Q653.548 163.244 652.176 162.098 Q650.822 160.935 647.992 160.935 L642.367 160.935 M642.367 150.275 L642.367 158.088 L647.558 158.088 Q650.128 158.088 651.378 157.133 Q652.645 156.161 652.645 154.182 Q652.645 152.22 651.378 151.248 Q650.128 150.275 647.558 150.275 L642.367 150.275 M638.86 147.394 L647.819 147.394 Q651.829 147.394 653.999 149.06 Q656.169 150.727 656.169 153.8 Q656.169 156.178 655.058 157.584 Q653.947 158.991 651.794 159.338 Q654.381 159.893 655.805 161.664 Q657.246 163.418 657.246 166.057 Q657.246 169.529 654.885 171.421 Q652.524 173.314 648.166 173.314 L638.86 173.314 L638.86 147.394 Z" fill="#000000" fill-rule="nonzero" fill-opacity="1" /><path clip-path="url(#clip630)" d="M671.951 163.539 Q668.079 163.539 666.586 164.425 Q665.093 165.31 665.093 167.446 Q665.093 169.147 666.204 170.154 Q667.333 171.143 669.26 171.143 Q671.916 171.143 673.513 169.268 Q675.128 167.376 675.128 164.251 L675.128 163.539 L671.951 163.539 M678.322 162.22 L678.322 173.314 L675.128 173.314 L675.128 170.362 Q674.034 172.133 672.402 172.984 Q670.77 173.817 668.409 173.817 Q665.423 173.817 663.652 172.15 Q661.899 170.466 661.899 167.654 Q661.899 164.373 664.086 162.706 Q666.291 161.039 670.649 161.039 L675.128 161.039 L675.128 160.727 Q675.128 158.522 673.669 157.324 Q672.228 156.109 669.607 156.109 Q667.94 156.109 666.36 156.508 Q664.78 156.907 663.322 157.706 L663.322 154.755 Q665.076 154.078 666.725 153.748 Q668.374 153.4 669.937 153.4 Q674.155 153.4 676.239 155.588 Q678.322 157.775 678.322 162.22 Z" fill="#000000" fill-rule="nonzero" fill-opacity="1" /><path clip-path="url(#clip630)" d="M688.062 148.348 L688.062 153.869 L694.641 153.869 L694.641 156.352 L688.062 156.352 L688.062 166.907 Q688.062 169.286 688.704 169.963 Q689.364 170.64 691.36 170.64 L694.641 170.64 L694.641 173.314 L691.36 173.314 Q687.662 173.314 686.256 171.942 Q684.85 170.553 684.85 166.907 L684.85 156.352 L682.506 156.352 L682.506 153.869 L684.85 153.869 L684.85 148.348 L688.062 148.348 Z" fill="#000000" fill-rule="nonzero" fill-opacity="1" /><path clip-path="url(#clip630)" d="M702.003 148.348 L702.003 153.869 L708.582 153.869 L708.582 156.352 L702.003 156.352 L702.003 166.907 Q702.003 169.286 702.645 169.963 Q703.305 170.64 705.301 170.64 L708.582 170.64 L708.582 173.314 L705.301 173.314 Q701.603 173.314 700.197 171.942 Q698.791 170.553 698.791 166.907 L698.791 156.352 L696.447 156.352 L696.447 153.869 L698.791 153.869 L698.791 148.348 L702.003 148.348 Z" fill="#000000" fill-rule="nonzero" fill-opacity="1" /><path clip-path="url(#clip630)" d="M729.416 162.793 L729.416 164.355 L714.728 164.355 Q714.936 167.654 716.707 169.39 Q718.495 171.109 721.673 171.109 Q723.513 171.109 725.232 170.657 Q726.968 170.206 728.669 169.303 L728.669 172.324 Q726.95 173.053 725.145 173.435 Q723.339 173.817 721.482 173.817 Q716.829 173.817 714.103 171.109 Q711.395 168.4 711.395 163.782 Q711.395 159.008 713.964 156.213 Q716.551 153.4 720.926 153.4 Q724.85 153.4 727.124 155.935 Q729.416 158.453 729.416 162.793 M726.221 161.855 Q726.186 159.234 724.745 157.671 Q723.322 156.109 720.961 156.109 Q718.287 156.109 716.673 157.619 Q715.075 159.13 714.832 161.873 L726.221 161.855 Z" fill="#000000" fill-rule="nonzero" fill-opacity="1" /><path clip-path="url(#clip630)" d="M745.926 156.855 Q745.388 156.543 744.745 156.404 Q744.12 156.248 743.356 156.248 Q740.648 156.248 739.19 158.018 Q737.749 159.772 737.749 163.071 L737.749 173.314 L734.537 173.314 L734.537 153.869 L737.749 153.869 L737.749 156.89 Q738.756 155.119 740.37 154.269 Q741.985 153.4 744.294 153.4 Q744.624 153.4 745.023 153.453 Q745.422 153.487 745.909 153.574 L745.926 156.855 Z" fill="#000000" fill-rule="nonzero" fill-opacity="1" /><path clip-path="url(#clip630)" d="M757.367 175.119 Q756.013 178.591 754.728 179.65 Q753.443 180.709 751.29 180.709 L748.738 180.709 L748.738 178.036 L750.613 178.036 Q751.933 178.036 752.662 177.411 Q753.391 176.786 754.277 174.459 L754.849 173.001 L746.985 153.869 L750.37 153.869 L756.447 169.077 L762.523 153.869 L765.908 153.869 L757.367 175.119 Z" fill="#000000" fill-rule="nonzero" fill-opacity="1" /><path clip-path="url(#clip630)" d="M782.679 170.362 L788.408 170.362 L788.408 150.588 L782.176 151.838 L782.176 148.644 L788.374 147.394 L791.881 147.394 L791.881 170.362 L797.61 170.362 L797.61 173.314 L782.679 173.314 L782.679 170.362 Z" fill="#000000" fill-rule="nonzero" fill-opacity="1" /><path clip-path="url(#clip630)" d="M1929.52 2274.13 L3152.76 2274.13 L3152.76 47.2441 L1929.52 47.2441  Z" fill="#ffffff" fill-rule="evenodd" fill-opacity="1"/>
<defs>
  <clipPath id="clip633">
    <rect x="1929" y="47" width="1224" height="2228"/>
  </clipPath>
</defs>
<polyline clip-path="url(#clip633)" style="stroke:#000000; stroke-linecap:round; stroke-linejoin:round; stroke-width:2; stroke-opacity:0.1; fill:none" points="2074.04,2274.13 2074.04,47.2441 "/>
<polyline clip-path="url(#clip633)" style="stroke:#000000; stroke-linecap:round; stroke-linejoin:round; stroke-width:2; stroke-opacity:0.1; fill:none" points="2348.8,2274.13 2348.8,47.2441 "/>
<polyline clip-path="url(#clip633)" style="stroke:#000000; stroke-linecap:round; stroke-linejoin:round; stroke-width:2; stroke-opacity:0.1; fill:none" points="2623.56,2274.13 2623.56,47.2441 "/>
<polyline clip-path="url(#clip633)" style="stroke:#000000; stroke-linecap:round; stroke-linejoin:round; stroke-width:2; stroke-opacity:0.1; fill:none" points="2898.33,2274.13 2898.33,47.2441 "/>
<polyline clip-path="url(#clip630)" style="stroke:#000000; stroke-linecap:round; stroke-linejoin:round; stroke-width:4; stroke-opacity:1; fill:none" points="1929.52,2274.13 3152.76,2274.13 "/>
<polyline clip-path="url(#clip630)" style="stroke:#000000; stroke-linecap:round; stroke-linejoin:round; stroke-width:4; stroke-opacity:1; fill:none" points="2074.04,2274.13 2074.04,2255.23 "/>
<polyline clip-path="url(#clip630)" style="stroke:#000000; stroke-linecap:round; stroke-linejoin:round; stroke-width:4; stroke-opacity:1; fill:none" points="2348.8,2274.13 2348.8,2255.23 "/>
<polyline clip-path="url(#clip630)" style="stroke:#000000; stroke-linecap:round; stroke-linejoin:round; stroke-width:4; stroke-opacity:1; fill:none" points="2623.56,2274.13 2623.56,2255.23 "/>
<polyline clip-path="url(#clip630)" style="stroke:#000000; stroke-linecap:round; stroke-linejoin:round; stroke-width:4; stroke-opacity:1; fill:none" points="2898.33,2274.13 2898.33,2255.23 "/>
<path clip-path="url(#clip630)" d="M2064.32 2308.37 L2082.68 2308.37 L2082.68 2312.3 L2068.6 2312.3 L2068.6 2320.78 Q2069.62 2320.43 2070.64 2320.27 Q2071.66 2320.08 2072.68 2320.08 Q2078.46 2320.08 2081.84 2323.25 Q2085.22 2326.42 2085.22 2331.84 Q2085.22 2337.42 2081.75 2340.52 Q2078.28 2343.6 2071.96 2343.6 Q2069.78 2343.6 2067.51 2343.23 Q2065.27 2342.86 2062.86 2342.12 L2062.86 2337.42 Q2064.94 2338.55 2067.17 2339.11 Q2069.39 2339.66 2071.87 2339.66 Q2075.87 2339.66 2078.21 2337.56 Q2080.55 2335.45 2080.55 2331.84 Q2080.55 2328.23 2078.21 2326.12 Q2075.87 2324.02 2071.87 2324.02 Q2069.99 2324.02 2068.12 2324.43 Q2066.26 2324.85 2064.32 2325.73 L2064.32 2308.37 Z" fill="#000000" fill-rule="nonzero" fill-opacity="1" /><path clip-path="url(#clip630)" d="M2323.49 2338.99 L2331.13 2338.99 L2331.13 2312.63 L2322.82 2314.29 L2322.82 2310.03 L2331.08 2308.37 L2335.76 2308.37 L2335.76 2338.99 L2343.4 2338.99 L2343.4 2342.93 L2323.49 2342.93 L2323.49 2338.99 Z" fill="#000000" fill-rule="nonzero" fill-opacity="1" /><path clip-path="url(#clip630)" d="M2362.84 2311.45 Q2359.23 2311.45 2357.4 2315.01 Q2355.6 2318.55 2355.6 2325.68 Q2355.6 2332.79 2357.4 2336.35 Q2359.23 2339.9 2362.84 2339.9 Q2366.48 2339.9 2368.28 2336.35 Q2370.11 2332.79 2370.11 2325.68 Q2370.11 2318.55 2368.28 2315.01 Q2366.48 2311.45 2362.84 2311.45 M2362.84 2307.74 Q2368.65 2307.74 2371.71 2312.35 Q2374.79 2316.93 2374.79 2325.68 Q2374.79 2334.41 2371.71 2339.02 Q2368.65 2343.6 2362.84 2343.6 Q2357.03 2343.6 2353.95 2339.02 Q2350.9 2334.41 2350.9 2325.68 Q2350.9 2316.93 2353.95 2312.35 Q2357.03 2307.74 2362.84 2307.74 Z" fill="#000000" fill-rule="nonzero" fill-opacity="1" /><path clip-path="url(#clip630)" d="M2598.75 2338.99 L2606.39 2338.99 L2606.39 2312.63 L2598.08 2314.29 L2598.08 2310.03 L2606.34 2308.37 L2611.02 2308.37 L2611.02 2338.99 L2618.66 2338.99 L2618.66 2342.93 L2598.75 2342.93 L2598.75 2338.99 Z" fill="#000000" fill-rule="nonzero" fill-opacity="1" /><path clip-path="url(#clip630)" d="M2628.15 2308.37 L2646.5 2308.37 L2646.5 2312.3 L2632.43 2312.3 L2632.43 2320.78 Q2633.45 2320.43 2634.47 2320.27 Q2635.49 2320.08 2636.5 2320.08 Q2642.29 2320.08 2645.67 2323.25 Q2649.05 2326.42 2649.05 2331.84 Q2649.05 2337.42 2645.58 2340.52 Q2642.11 2343.6 2635.79 2343.6 Q2633.61 2343.6 2631.34 2343.23 Q2629.1 2342.86 2626.69 2342.12 L2626.69 2337.42 Q2628.77 2338.55 2631 2339.11 Q2633.22 2339.66 2635.69 2339.66 Q2639.7 2339.66 2642.04 2337.56 Q2644.37 2335.45 2644.37 2331.84 Q2644.37 2328.23 2642.04 2326.12 Q2639.7 2324.02 2635.69 2324.02 Q2633.82 2324.02 2631.94 2324.43 Q2630.09 2324.85 2628.15 2325.73 L2628.15 2308.37 Z" fill="#000000" fill-rule="nonzero" fill-opacity="1" /><path clip-path="url(#clip630)" d="M2877.1 2338.99 L2893.42 2338.99 L2893.42 2342.93 L2871.47 2342.93 L2871.47 2338.99 Q2874.14 2336.24 2878.72 2331.61 Q2883.33 2326.96 2884.51 2325.61 Q2886.75 2323.09 2887.63 2321.35 Q2888.53 2319.59 2888.53 2317.9 Q2888.53 2315.15 2886.59 2313.41 Q2884.67 2311.68 2881.57 2311.68 Q2879.37 2311.68 2876.91 2312.44 Q2874.48 2313.21 2871.71 2314.76 L2871.71 2310.03 Q2874.53 2308.9 2876.98 2308.32 Q2879.44 2307.74 2881.47 2307.74 Q2886.85 2307.74 2890.04 2310.43 Q2893.23 2313.11 2893.23 2317.6 Q2893.23 2319.73 2892.42 2321.65 Q2891.64 2323.55 2889.53 2326.15 Q2888.95 2326.82 2885.85 2330.03 Q2882.75 2333.23 2877.1 2338.99 Z" fill="#000000" fill-rule="nonzero" fill-opacity="1" /><path clip-path="url(#clip630)" d="M2913.23 2311.45 Q2909.62 2311.45 2907.79 2315.01 Q2905.99 2318.55 2905.99 2325.68 Q2905.99 2332.79 2907.79 2336.35 Q2909.62 2339.9 2913.23 2339.9 Q2916.87 2339.9 2918.67 2336.35 Q2920.5 2332.79 2920.5 2325.68 Q2920.5 2318.55 2918.67 2315.01 Q2916.87 2311.45 2913.23 2311.45 M2913.23 2307.74 Q2919.04 2307.74 2922.1 2312.35 Q2925.18 2316.93 2925.18 2325.68 Q2925.18 2334.41 2922.1 2339.02 Q2919.04 2343.6 2913.23 2343.6 Q2907.42 2343.6 2904.34 2339.02 Q2901.29 2334.41 2901.29 2325.68 Q2901.29 2316.93 2904.34 2312.35 Q2907.42 2307.74 2913.23 2307.74 Z" fill="#000000" fill-rule="nonzero" fill-opacity="1" /><polyline clip-path="url(#clip633)" style="stroke:#000000; stroke-linecap:round; stroke-linejoin:round; stroke-width:2; stroke-opacity:0.1; fill:none" points="1929.52,2211.1 3152.76,2211.1 "/>
<polyline clip-path="url(#clip633)" style="stroke:#000000; stroke-linecap:round; stroke-linejoin:round; stroke-width:2; stroke-opacity:0.1; fill:none" points="1929.52,1824.03 3152.76,1824.03 "/>
<polyline clip-path="url(#clip633)" style="stroke:#000000; stroke-linecap:round; stroke-linejoin:round; stroke-width:2; stroke-opacity:0.1; fill:none" points="1929.52,1436.95 3152.76,1436.95 "/>
<polyline clip-path="url(#clip633)" style="stroke:#000000; stroke-linecap:round; stroke-linejoin:round; stroke-width:2; stroke-opacity:0.1; fill:none" points="1929.52,1049.87 3152.76,1049.87 "/>
<polyline clip-path="url(#clip633)" style="stroke:#000000; stroke-linecap:round; stroke-linejoin:round; stroke-width:2; stroke-opacity:0.1; fill:none" points="1929.52,662.798 3152.76,662.798 "/>
<polyline clip-path="url(#clip633)" style="stroke:#000000; stroke-linecap:round; stroke-linejoin:round; stroke-width:2; stroke-opacity:0.1; fill:none" points="1929.52,275.722 3152.76,275.722 "/>
<polyline clip-path="url(#clip630)" style="stroke:#000000; stroke-linecap:round; stroke-linejoin:round; stroke-width:4; stroke-opacity:1; fill:none" points="1929.52,2274.13 1929.52,47.2441 "/>
<polyline clip-path="url(#clip630)" style="stroke:#000000; stroke-linecap:round; stroke-linejoin:round; stroke-width:4; stroke-opacity:1; fill:none" points="1929.52,2211.1 1948.41,2211.1 "/>
<polyline clip-path="url(#clip630)" style="stroke:#000000; stroke-linecap:round; stroke-linejoin:round; stroke-width:4; stroke-opacity:1; fill:none" points="1929.52,1824.03 1948.41,1824.03 "/>
<polyline clip-path="url(#clip630)" style="stroke:#000000; stroke-linecap:round; stroke-linejoin:round; stroke-width:4; stroke-opacity:1; fill:none" points="1929.52,1436.95 1948.41,1436.95 "/>
<polyline clip-path="url(#clip630)" style="stroke:#000000; stroke-linecap:round; stroke-linejoin:round; stroke-width:4; stroke-opacity:1; fill:none" points="1929.52,1049.87 1948.41,1049.87 "/>
<polyline clip-path="url(#clip630)" style="stroke:#000000; stroke-linecap:round; stroke-linejoin:round; stroke-width:4; stroke-opacity:1; fill:none" points="1929.52,662.798 1948.41,662.798 "/>
<polyline clip-path="url(#clip630)" style="stroke:#000000; stroke-linecap:round; stroke-linejoin:round; stroke-width:4; stroke-opacity:1; fill:none" points="1929.52,275.722 1948.41,275.722 "/>
<path clip-path="url(#clip630)" d="M1869.57 2196.9 Q1865.96 2196.9 1864.13 2200.47 Q1862.33 2204.01 1862.33 2211.14 Q1862.33 2218.24 1864.13 2221.81 Q1865.96 2225.35 1869.57 2225.35 Q1873.21 2225.35 1875.01 2221.81 Q1876.84 2218.24 1876.84 2211.14 Q1876.84 2204.01 1875.01 2200.47 Q1873.21 2196.9 1869.57 2196.9 M1869.57 2193.2 Q1875.38 2193.2 1878.44 2197.8 Q1881.52 2202.39 1881.52 2211.14 Q1881.52 2219.86 1878.44 2224.47 Q1875.38 2229.05 1869.57 2229.05 Q1863.76 2229.05 1860.68 2224.47 Q1857.63 2219.86 1857.63 2211.14 Q1857.63 2202.39 1860.68 2197.8 Q1863.76 2193.2 1869.57 2193.2 Z" fill="#000000" fill-rule="nonzero" fill-opacity="1" /><path clip-path="url(#clip630)" d="M1665.69 1813.19 L1684.05 1813.19 L1684.05 1817.13 L1669.97 1817.13 L1669.97 1825.6 Q1670.99 1825.25 1672.01 1825.09 Q1673.03 1824.91 1674.05 1824.91 Q1679.83 1824.91 1683.21 1828.08 Q1686.59 1831.25 1686.59 1836.67 Q1686.59 1842.25 1683.12 1845.35 Q1679.65 1848.43 1673.33 1848.43 Q1671.15 1848.43 1668.89 1848.06 Q1666.64 1847.68 1664.23 1846.94 L1664.23 1842.25 Q1666.32 1843.38 1668.54 1843.93 Q1670.76 1844.49 1673.24 1844.49 Q1677.24 1844.49 1679.58 1842.38 Q1681.92 1840.28 1681.92 1836.67 Q1681.92 1833.06 1679.58 1830.95 Q1677.24 1828.84 1673.24 1828.84 Q1671.36 1828.84 1669.49 1829.26 Q1667.64 1829.68 1665.69 1830.56 L1665.69 1813.19 Z" fill="#000000" fill-rule="nonzero" fill-opacity="1" /><path clip-path="url(#clip630)" d="M1695.81 1841.87 L1700.69 1841.87 L1700.69 1847.75 L1695.81 1847.75 L1695.81 1841.87 Z" fill="#000000" fill-rule="nonzero" fill-opacity="1" /><path clip-path="url(#clip630)" d="M1720.88 1816.27 Q1717.27 1816.27 1715.44 1819.84 Q1713.63 1823.38 1713.63 1830.51 Q1713.63 1837.62 1715.44 1841.18 Q1717.27 1844.72 1720.88 1844.72 Q1724.51 1844.72 1726.32 1841.18 Q1728.14 1837.62 1728.14 1830.51 Q1728.14 1823.38 1726.32 1819.84 Q1724.51 1816.27 1720.88 1816.27 M1720.88 1812.57 Q1726.69 1812.57 1729.74 1817.18 Q1732.82 1821.76 1732.82 1830.51 Q1732.82 1839.24 1729.74 1843.84 Q1726.69 1848.43 1720.88 1848.43 Q1715.07 1848.43 1711.99 1843.84 Q1708.93 1839.24 1708.93 1830.51 Q1708.93 1821.76 1711.99 1817.18 Q1715.07 1812.57 1720.88 1812.57 Z" fill="#000000" fill-rule="nonzero" fill-opacity="1" /><path clip-path="url(#clip630)" d="M1751.04 1816.27 Q1747.43 1816.27 1745.6 1819.84 Q1743.79 1823.38 1743.79 1830.51 Q1743.79 1837.62 1745.6 1841.18 Q1747.43 1844.72 1751.04 1844.72 Q1754.67 1844.72 1756.48 1841.18 Q1758.31 1837.62 1758.31 1830.51 Q1758.31 1823.38 1756.48 1819.84 Q1754.67 1816.27 1751.04 1816.27 M1751.04 1812.57 Q1756.85 1812.57 1759.9 1817.18 Q1762.98 1821.76 1762.98 1830.51 Q1762.98 1839.24 1759.9 1843.84 Q1756.85 1848.43 1751.04 1848.43 Q1745.23 1848.43 1742.15 1843.84 Q1739.09 1839.24 1739.09 1830.51 Q1739.09 1821.76 1742.15 1817.18 Q1745.23 1812.57 1751.04 1812.57 Z" fill="#000000" fill-rule="nonzero" fill-opacity="1" /><path clip-path="url(#clip630)" d="M1799.37 1822.29 L1788.79 1832.92 L1799.37 1843.5 L1796.62 1846.3 L1785.99 1835.67 L1775.37 1846.3 L1772.64 1843.5 L1783.19 1832.92 L1772.64 1822.29 L1775.37 1819.49 L1785.99 1830.12 L1796.62 1819.49 L1799.37 1822.29 Z" fill="#000000" fill-rule="nonzero" fill-opacity="1" /><path clip-path="url(#clip630)" d="M1811.73 1843.82 L1819.37 1843.82 L1819.37 1817.45 L1811.06 1819.12 L1811.06 1814.86 L1819.32 1813.19 L1824 1813.19 L1824 1843.82 L1831.64 1843.82 L1831.64 1847.75 L1811.73 1847.75 L1811.73 1843.82 Z" fill="#000000" fill-rule="nonzero" fill-opacity="1" /><path clip-path="url(#clip630)" d="M1851.08 1816.27 Q1847.47 1816.27 1845.64 1819.84 Q1843.84 1823.38 1843.84 1830.51 Q1843.84 1837.62 1845.64 1841.18 Q1847.47 1844.72 1851.08 1844.72 Q1854.72 1844.72 1856.52 1841.18 Q1858.35 1837.62 1858.35 1830.51 Q1858.35 1823.38 1856.52 1819.84 Q1854.72 1816.27 1851.08 1816.27 M1851.08 1812.57 Q1856.89 1812.57 1859.95 1817.18 Q1863.03 1821.76 1863.03 1830.51 Q1863.03 1839.24 1859.95 1843.84 Q1856.89 1848.43 1851.08 1848.43 Q1845.27 1848.43 1842.2 1843.84 Q1839.14 1839.24 1839.14 1830.51 Q1839.14 1821.76 1842.2 1817.18 Q1845.27 1812.57 1851.08 1812.57 Z" fill="#000000" fill-rule="nonzero" fill-opacity="1" /><path clip-path="url(#clip630)" d="M1875.72 1805.2 Q1878.45 1805.79 1879.97 1807.63 Q1881.52 1809.47 1881.52 1812.18 Q1881.52 1816.34 1878.66 1818.61 Q1875.8 1820.89 1870.53 1820.89 Q1868.76 1820.89 1866.88 1820.53 Q1865.02 1820.19 1863.03 1819.5 L1863.03 1815.83 Q1864.61 1816.75 1866.49 1817.22 Q1868.37 1817.69 1870.42 1817.69 Q1873.99 1817.69 1875.86 1816.28 Q1877.74 1814.87 1877.74 1812.18 Q1877.74 1809.7 1875.99 1808.31 Q1874.26 1806.9 1871.15 1806.9 L1867.88 1806.9 L1867.88 1803.77 L1871.3 1803.77 Q1874.11 1803.77 1875.59 1802.66 Q1877.08 1801.54 1877.08 1799.43 Q1877.08 1797.27 1875.54 1796.12 Q1874.01 1794.95 1871.15 1794.95 Q1869.59 1794.95 1867.81 1795.29 Q1866.02 1795.63 1863.87 1796.35 L1863.87 1792.96 Q1866.04 1792.36 1867.92 1792.06 Q1869.82 1791.76 1871.49 1791.76 Q1875.82 1791.76 1878.34 1793.73 Q1880.86 1795.69 1880.86 1799.03 Q1880.86 1801.37 1879.52 1802.98 Q1878.19 1804.58 1875.72 1805.2 Z" fill="#000000" fill-rule="nonzero" fill-opacity="1" /><path clip-path="url(#clip630)" d="M1664.48 1456.74 L1672.12 1456.74 L1672.12 1430.38 L1663.81 1432.04 L1663.81 1427.78 L1672.07 1426.12 L1676.75 1426.12 L1676.75 1456.74 L1684.39 1456.74 L1684.39 1460.68 L1664.48 1460.68 L1664.48 1456.74 Z" fill="#000000" fill-rule="nonzero" fill-opacity="1" /><path clip-path="url(#clip630)" d="M1693.83 1454.8 L1698.72 1454.8 L1698.72 1460.68 L1693.83 1460.68 L1693.83 1454.8 Z" fill="#000000" fill-rule="nonzero" fill-opacity="1" /><path clip-path="url(#clip630)" d="M1718.9 1429.2 Q1715.29 1429.2 1713.46 1432.76 Q1711.66 1436.3 1711.66 1443.43 Q1711.66 1450.54 1713.46 1454.1 Q1715.29 1457.65 1718.9 1457.65 Q1722.54 1457.65 1724.34 1454.1 Q1726.17 1450.54 1726.17 1443.43 Q1726.17 1436.3 1724.34 1432.76 Q1722.54 1429.2 1718.9 1429.2 M1718.9 1425.49 Q1724.71 1425.49 1727.77 1430.1 Q1730.85 1434.68 1730.85 1443.43 Q1730.85 1452.16 1727.77 1456.77 Q1724.71 1461.35 1718.9 1461.35 Q1713.09 1461.35 1710.01 1456.77 Q1706.96 1452.16 1706.96 1443.43 Q1706.96 1434.68 1710.01 1430.1 Q1713.09 1425.49 1718.9 1425.49 Z" fill="#000000" fill-rule="nonzero" fill-opacity="1" /><path clip-path="url(#clip630)" d="M1749.06 1429.2 Q1745.45 1429.2 1743.62 1432.76 Q1741.82 1436.3 1741.82 1443.43 Q1741.82 1450.54 1743.62 1454.1 Q1745.45 1457.65 1749.06 1457.65 Q1752.7 1457.65 1754.5 1454.1 Q1756.33 1450.54 1756.33 1443.43 Q1756.33 1436.3 1754.5 1432.76 Q1752.7 1429.2 1749.06 1429.2 M1749.06 1425.49 Q1754.87 1425.49 1757.93 1430.1 Q1761.01 1434.68 1761.01 1443.43 Q1761.01 1452.16 1757.93 1456.77 Q1754.87 1461.35 1749.06 1461.35 Q1743.25 1461.35 1740.17 1456.77 Q1737.12 1452.16 1737.12 1443.43 Q1737.12 1434.68 1740.17 1430.1 Q1743.25 1425.49 1749.06 1425.49 Z" fill="#000000" fill-rule="nonzero" fill-opacity="1" /><path clip-path="url(#clip630)" d="M1797.4 1435.22 L1786.82 1445.84 L1797.4 1456.42 L1794.64 1459.22 L1784.02 1448.59 L1773.39 1459.22 L1770.66 1456.42 L1781.22 1445.84 L1770.66 1435.22 L1773.39 1432.41 L1784.02 1443.04 L1794.64 1432.41 L1797.4 1435.22 Z" fill="#000000" fill-rule="nonzero" fill-opacity="1" /><path clip-path="url(#clip630)" d="M1809.76 1456.74 L1817.4 1456.74 L1817.4 1430.38 L1809.09 1432.04 L1809.09 1427.78 L1817.35 1426.12 L1822.03 1426.12 L1822.03 1456.74 L1829.66 1456.74 L1829.66 1460.68 L1809.76 1460.68 L1809.76 1456.74 Z" fill="#000000" fill-rule="nonzero" fill-opacity="1" /><path clip-path="url(#clip630)" d="M1849.11 1429.2 Q1845.5 1429.2 1843.67 1432.76 Q1841.86 1436.3 1841.86 1443.43 Q1841.86 1450.54 1843.67 1454.1 Q1845.5 1457.65 1849.11 1457.65 Q1852.74 1457.65 1854.55 1454.1 Q1856.38 1450.54 1856.38 1443.43 Q1856.38 1436.3 1854.55 1432.76 Q1852.74 1429.2 1849.11 1429.2 M1849.11 1425.49 Q1854.92 1425.49 1857.97 1430.1 Q1861.05 1434.68 1861.05 1443.43 Q1861.05 1452.16 1857.97 1456.77 Q1854.92 1461.35 1849.11 1461.35 Q1843.3 1461.35 1840.22 1456.77 Q1837.16 1452.16 1837.16 1443.43 Q1837.16 1434.68 1840.22 1430.1 Q1843.3 1425.49 1849.11 1425.49 Z" fill="#000000" fill-rule="nonzero" fill-opacity="1" /><path clip-path="url(#clip630)" d="M1873.73 1408.5 L1864.14 1423.49 L1873.73 1423.49 L1873.73 1408.5 M1872.73 1405.19 L1877.51 1405.19 L1877.51 1423.49 L1881.52 1423.49 L1881.52 1426.65 L1877.51 1426.65 L1877.51 1433.27 L1873.73 1433.27 L1873.73 1426.65 L1861.05 1426.65 L1861.05 1422.98 L1872.73 1405.19 Z" fill="#000000" fill-rule="nonzero" fill-opacity="1" /><path clip-path="url(#clip630)" d="M1664.48 1069.67 L1672.12 1069.67 L1672.12 1043.3 L1663.81 1044.97 L1663.81 1040.71 L1672.07 1039.04 L1676.75 1039.04 L1676.75 1069.67 L1684.39 1069.67 L1684.39 1073.6 L1664.48 1073.6 L1664.48 1069.67 Z" fill="#000000" fill-rule="nonzero" fill-opacity="1" /><path clip-path="url(#clip630)" d="M1693.83 1067.72 L1698.72 1067.72 L1698.72 1073.6 L1693.83 1073.6 L1693.83 1067.72 Z" fill="#000000" fill-rule="nonzero" fill-opacity="1" /><path clip-path="url(#clip630)" d="M1708.95 1039.04 L1727.3 1039.04 L1727.3 1042.98 L1713.23 1042.98 L1713.23 1051.45 Q1714.25 1051.1 1715.27 1050.94 Q1716.29 1050.75 1717.3 1050.75 Q1723.09 1050.75 1726.47 1053.93 Q1729.85 1057.1 1729.85 1062.51 Q1729.85 1068.09 1726.38 1071.19 Q1722.91 1074.27 1716.59 1074.27 Q1714.41 1074.27 1712.14 1073.9 Q1709.9 1073.53 1707.49 1072.79 L1707.49 1068.09 Q1709.57 1069.23 1711.8 1069.78 Q1714.02 1070.34 1716.49 1070.34 Q1720.5 1070.34 1722.84 1068.23 Q1725.17 1066.13 1725.17 1062.51 Q1725.17 1058.9 1722.84 1056.8 Q1720.5 1054.69 1716.49 1054.69 Q1714.62 1054.69 1712.74 1055.11 Q1710.89 1055.52 1708.95 1056.4 L1708.95 1039.04 Z" fill="#000000" fill-rule="nonzero" fill-opacity="1" /><path clip-path="url(#clip630)" d="M1749.06 1042.12 Q1745.45 1042.12 1743.62 1045.69 Q1741.82 1049.23 1741.82 1056.36 Q1741.82 1063.46 1743.62 1067.03 Q1745.45 1070.57 1749.06 1070.57 Q1752.7 1070.57 1754.5 1067.03 Q1756.33 1063.46 1756.33 1056.36 Q1756.33 1049.23 1754.5 1045.69 Q1752.7 1042.12 1749.06 1042.12 M1749.06 1038.42 Q1754.87 1038.42 1757.93 1043.02 Q1761.01 1047.61 1761.01 1056.36 Q1761.01 1065.08 1757.93 1069.69 Q1754.87 1074.27 1749.06 1074.27 Q1743.25 1074.27 1740.17 1069.69 Q1737.12 1065.08 1737.12 1056.36 Q1737.12 1047.61 1740.17 1043.02 Q1743.25 1038.42 1749.06 1038.42 Z" fill="#000000" fill-rule="nonzero" fill-opacity="1" /><path clip-path="url(#clip630)" d="M1797.4 1048.14 L1786.82 1058.76 L1797.4 1069.34 L1794.64 1072.14 L1784.02 1061.52 L1773.39 1072.14 L1770.66 1069.34 L1781.22 1058.76 L1770.66 1048.14 L1773.39 1045.34 L1784.02 1055.96 L1794.64 1045.34 L1797.4 1048.14 Z" fill="#000000" fill-rule="nonzero" fill-opacity="1" /><path clip-path="url(#clip630)" d="M1809.76 1069.67 L1817.4 1069.67 L1817.4 1043.3 L1809.09 1044.97 L1809.09 1040.71 L1817.35 1039.04 L1822.03 1039.04 L1822.03 1069.67 L1829.66 1069.67 L1829.66 1073.6 L1809.76 1073.6 L1809.76 1069.67 Z" fill="#000000" fill-rule="nonzero" fill-opacity="1" /><path clip-path="url(#clip630)" d="M1849.11 1042.12 Q1845.5 1042.12 1843.67 1045.69 Q1841.86 1049.23 1841.86 1056.36 Q1841.86 1063.46 1843.67 1067.03 Q1845.5 1070.57 1849.11 1070.57 Q1852.74 1070.57 1854.55 1067.03 Q1856.38 1063.46 1856.38 1056.36 Q1856.38 1049.23 1854.55 1045.69 Q1852.74 1042.12 1849.11 1042.12 M1849.11 1038.42 Q1854.92 1038.42 1857.97 1043.02 Q1861.05 1047.61 1861.05 1056.36 Q1861.05 1065.08 1857.97 1069.69 Q1854.92 1074.27 1849.11 1074.27 Q1843.3 1074.27 1840.22 1069.69 Q1837.16 1065.08 1837.16 1056.36 Q1837.16 1047.61 1840.22 1043.02 Q1843.3 1038.42 1849.11 1038.42 Z" fill="#000000" fill-rule="nonzero" fill-opacity="1" /><path clip-path="url(#clip630)" d="M1873.73 1021.42 L1864.14 1036.41 L1873.73 1036.41 L1873.73 1021.42 M1872.73 1018.11 L1877.51 1018.11 L1877.51 1036.41 L1881.52 1036.41 L1881.52 1039.57 L1877.51 1039.57 L1877.51 1046.19 L1873.73 1046.19 L1873.73 1039.57 L1861.05 1039.57 L1861.05 1035.9 L1872.73 1018.11 Z" fill="#000000" fill-rule="nonzero" fill-opacity="1" /><path clip-path="url(#clip630)" d="M1667.7 682.59 L1684.02 682.59 L1684.02 686.526 L1662.07 686.526 L1662.07 682.59 Q1664.74 679.836 1669.32 675.206 Q1673.92 670.553 1675.11 669.211 Q1677.35 666.688 1678.23 664.952 Q1679.13 663.192 1679.13 661.503 Q1679.13 658.748 1677.19 657.012 Q1675.27 655.276 1672.17 655.276 Q1669.97 655.276 1667.51 656.04 Q1665.08 656.804 1662.3 658.354 L1662.3 653.632 Q1665.13 652.498 1667.58 651.919 Q1670.04 651.341 1672.07 651.341 Q1677.44 651.341 1680.64 654.026 Q1683.83 656.711 1683.83 661.202 Q1683.83 663.331 1683.02 665.253 Q1682.23 667.151 1680.13 669.743 Q1679.55 670.415 1676.45 673.632 Q1673.35 676.827 1667.7 682.59 Z" fill="#000000" fill-rule="nonzero" fill-opacity="1" /><path clip-path="url(#clip630)" d="M1693.83 680.646 L1698.72 680.646 L1698.72 686.526 L1693.83 686.526 L1693.83 680.646 Z" fill="#000000" fill-rule="nonzero" fill-opacity="1" /><path clip-path="url(#clip630)" d="M1718.9 655.044 Q1715.29 655.044 1713.46 658.609 Q1711.66 662.151 1711.66 669.28 Q1711.66 676.387 1713.46 679.952 Q1715.29 683.493 1718.9 683.493 Q1722.54 683.493 1724.34 679.952 Q1726.17 676.387 1726.17 669.28 Q1726.17 662.151 1724.34 658.609 Q1722.54 655.044 1718.9 655.044 M1718.9 651.341 Q1724.71 651.341 1727.77 655.947 Q1730.85 660.53 1730.85 669.28 Q1730.85 678.007 1727.77 682.614 Q1724.71 687.197 1718.9 687.197 Q1713.09 687.197 1710.01 682.614 Q1706.96 678.007 1706.96 669.28 Q1706.96 660.53 1710.01 655.947 Q1713.09 651.341 1718.9 651.341 Z" fill="#000000" fill-rule="nonzero" fill-opacity="1" /><path clip-path="url(#clip630)" d="M1749.06 655.044 Q1745.45 655.044 1743.62 658.609 Q1741.82 662.151 1741.82 669.28 Q1741.82 676.387 1743.62 679.952 Q1745.45 683.493 1749.06 683.493 Q1752.7 683.493 1754.5 679.952 Q1756.33 676.387 1756.33 669.28 Q1756.33 662.151 1754.5 658.609 Q1752.7 655.044 1749.06 655.044 M1749.06 651.341 Q1754.87 651.341 1757.93 655.947 Q1761.01 660.53 1761.01 669.28 Q1761.01 678.007 1757.93 682.614 Q1754.87 687.197 1749.06 687.197 Q1743.25 687.197 1740.17 682.614 Q1737.12 678.007 1737.12 669.28 Q1737.12 660.53 1740.17 655.947 Q1743.25 651.341 1749.06 651.341 Z" fill="#000000" fill-rule="nonzero" fill-opacity="1" /><path clip-path="url(#clip630)" d="M1797.4 661.063 L1786.82 671.688 L1797.4 682.266 L1794.64 685.067 L1784.02 674.442 L1773.39 685.067 L1770.66 682.266 L1781.22 671.688 L1770.66 661.063 L1773.39 658.262 L1784.02 668.887 L1794.64 658.262 L1797.4 661.063 Z" fill="#000000" fill-rule="nonzero" fill-opacity="1" /><path clip-path="url(#clip630)" d="M1809.76 682.59 L1817.4 682.59 L1817.4 656.225 L1809.09 657.892 L1809.09 653.632 L1817.35 651.966 L1822.03 651.966 L1822.03 682.59 L1829.66 682.59 L1829.66 686.526 L1809.76 686.526 L1809.76 682.59 Z" fill="#000000" fill-rule="nonzero" fill-opacity="1" /><path clip-path="url(#clip630)" d="M1849.11 655.044 Q1845.5 655.044 1843.67 658.609 Q1841.86 662.151 1841.86 669.28 Q1841.86 676.387 1843.67 679.952 Q1845.5 683.493 1849.11 683.493 Q1852.74 683.493 1854.55 679.952 Q1856.38 676.387 1856.38 669.28 Q1856.38 662.151 1854.55 658.609 Q1852.74 655.044 1849.11 655.044 M1849.11 651.341 Q1854.92 651.341 1857.97 655.947 Q1861.05 660.53 1861.05 669.28 Q1861.05 678.007 1857.97 682.614 Q1854.92 687.197 1849.11 687.197 Q1843.3 687.197 1840.22 682.614 Q1837.16 678.007 1837.16 669.28 Q1837.16 660.53 1840.22 655.947 Q1843.3 651.341 1849.11 651.341 Z" fill="#000000" fill-rule="nonzero" fill-opacity="1" /><path clip-path="url(#clip630)" d="M1873.73 634.345 L1864.14 649.335 L1873.73 649.335 L1873.73 634.345 M1872.73 631.035 L1877.51 631.035 L1877.51 649.335 L1881.52 649.335 L1881.52 652.495 L1877.51 652.495 L1877.51 659.115 L1873.73 659.115 L1873.73 652.495 L1861.05 652.495 L1861.05 648.827 L1872.73 631.035 Z" fill="#000000" fill-rule="nonzero" fill-opacity="1" /><path clip-path="url(#clip630)" d="M1667.7 295.514 L1684.02 295.514 L1684.02 299.449 L1662.07 299.449 L1662.07 295.514 Q1664.74 292.76 1669.32 288.13 Q1673.92 283.477 1675.11 282.135 Q1677.35 279.612 1678.23 277.875 Q1679.13 276.116 1679.13 274.426 Q1679.13 271.672 1677.19 269.936 Q1675.27 268.2 1672.17 268.2 Q1669.97 268.2 1667.51 268.963 Q1665.08 269.727 1662.3 271.278 L1662.3 266.556 Q1665.13 265.422 1667.58 264.843 Q1670.04 264.264 1672.07 264.264 Q1677.44 264.264 1680.64 266.95 Q1683.83 269.635 1683.83 274.125 Q1683.83 276.255 1683.02 278.176 Q1682.23 280.075 1680.13 282.667 Q1679.55 283.338 1676.45 286.556 Q1673.35 289.75 1667.7 295.514 Z" fill="#000000" fill-rule="nonzero" fill-opacity="1" /><path clip-path="url(#clip630)" d="M1693.83 293.57 L1698.72 293.57 L1698.72 299.449 L1693.83 299.449 L1693.83 293.57 Z" fill="#000000" fill-rule="nonzero" fill-opacity="1" /><path clip-path="url(#clip630)" d="M1708.95 264.889 L1727.3 264.889 L1727.3 268.825 L1713.23 268.825 L1713.23 277.297 Q1714.25 276.95 1715.27 276.787 Q1716.29 276.602 1717.3 276.602 Q1723.09 276.602 1726.47 279.774 Q1729.85 282.945 1729.85 288.361 Q1729.85 293.94 1726.38 297.042 Q1722.91 300.121 1716.59 300.121 Q1714.41 300.121 1712.14 299.75 Q1709.9 299.38 1707.49 298.639 L1707.49 293.94 Q1709.57 295.074 1711.8 295.63 Q1714.02 296.186 1716.49 296.186 Q1720.5 296.186 1722.84 294.079 Q1725.17 291.973 1725.17 288.361 Q1725.17 284.75 1722.84 282.644 Q1720.5 280.537 1716.49 280.537 Q1714.62 280.537 1712.74 280.954 Q1710.89 281.371 1708.95 282.25 L1708.95 264.889 Z" fill="#000000" fill-rule="nonzero" fill-opacity="1" /><path clip-path="url(#clip630)" d="M1749.06 267.968 Q1745.45 267.968 1743.62 271.533 Q1741.82 275.075 1741.82 282.204 Q1741.82 289.311 1743.62 292.875 Q1745.45 296.417 1749.06 296.417 Q1752.7 296.417 1754.5 292.875 Q1756.33 289.311 1756.33 282.204 Q1756.33 275.075 1754.5 271.533 Q1752.7 267.968 1749.06 267.968 M1749.06 264.264 Q1754.87 264.264 1757.93 268.871 Q1761.01 273.454 1761.01 282.204 Q1761.01 290.931 1757.93 295.537 Q1754.87 300.121 1749.06 300.121 Q1743.25 300.121 1740.17 295.537 Q1737.12 290.931 1737.12 282.204 Q1737.12 273.454 1740.17 268.871 Q1743.25 264.264 1749.06 264.264 Z" fill="#000000" fill-rule="nonzero" fill-opacity="1" /><path clip-path="url(#clip630)" d="M1797.4 273.987 L1786.82 284.612 L1797.4 295.19 L1794.64 297.991 L1784.02 287.366 L1773.39 297.991 L1770.66 295.19 L1781.22 284.612 L1770.66 273.987 L1773.39 271.186 L1784.02 281.811 L1794.64 271.186 L1797.4 273.987 Z" fill="#000000" fill-rule="nonzero" fill-opacity="1" /><path clip-path="url(#clip630)" d="M1809.76 295.514 L1817.4 295.514 L1817.4 269.149 L1809.09 270.815 L1809.09 266.556 L1817.35 264.889 L1822.03 264.889 L1822.03 295.514 L1829.66 295.514 L1829.66 299.449 L1809.76 299.449 L1809.76 295.514 Z" fill="#000000" fill-rule="nonzero" fill-opacity="1" /><path clip-path="url(#clip630)" d="M1849.11 267.968 Q1845.5 267.968 1843.67 271.533 Q1841.86 275.075 1841.86 282.204 Q1841.86 289.311 1843.67 292.875 Q1845.5 296.417 1849.11 296.417 Q1852.74 296.417 1854.55 292.875 Q1856.38 289.311 1856.38 282.204 Q1856.38 275.075 1854.55 271.533 Q1852.74 267.968 1849.11 267.968 M1849.11 264.264 Q1854.92 264.264 1857.97 268.871 Q1861.05 273.454 1861.05 282.204 Q1861.05 290.931 1857.97 295.537 Q1854.92 300.121 1849.11 300.121 Q1843.3 300.121 1840.22 295.537 Q1837.16 290.931 1837.16 282.204 Q1837.16 273.454 1840.22 268.871 Q1843.3 264.264 1849.11 264.264 Z" fill="#000000" fill-rule="nonzero" fill-opacity="1" /><path clip-path="url(#clip630)" d="M1873.73 247.269 L1864.14 262.259 L1873.73 262.259 L1873.73 247.269 M1872.73 243.959 L1877.51 243.959 L1877.51 262.259 L1881.52 262.259 L1881.52 265.419 L1877.51 265.419 L1877.51 272.039 L1873.73 272.039 L1873.73 265.419 L1861.05 265.419 L1861.05 261.751 L1872.73 243.959 Z" fill="#000000" fill-rule="nonzero" fill-opacity="1" /><polyline clip-path="url(#clip633)" style="stroke:#009af9; stroke-linecap:round; stroke-linejoin:round; stroke-width:4; stroke-opacity:1; fill:none" points="1964.14,2133.56 2128.99,2211.1 2293.85,2211.1 2458.71,137.667 2678.52,110.269 2898.33,1244.63 3118.14,1244.63 "/>
<path clip-path="url(#clip630)" d="M1970.29 199.234 L2395.84 199.234 L2395.84 121.474 L1970.29 121.474  Z" fill="#ffffff" fill-rule="evenodd" fill-opacity="1"/>
<polyline clip-path="url(#clip630)" style="stroke:#000000; stroke-linecap:round; stroke-linejoin:round; stroke-width:4; stroke-opacity:1; fill:none" points="1970.29,199.234 2395.84,199.234 2395.84,121.474 1970.29,121.474 1970.29,199.234 "/>
<polyline clip-path="url(#clip630)" style="stroke:#009af9; stroke-linecap:round; stroke-linejoin:round; stroke-width:3; stroke-opacity:1; fill:none" points="1983.88,160.354 2065.43,160.354 "/>
<path clip-path="url(#clip630)" d="M2090.9 150.848 L2086.14 163.748 L2095.67 163.748 L2090.9 150.848 M2088.92 147.394 L2092.89 147.394 L2102.77 173.314 L2099.13 173.314 L2096.77 166.664 L2085.08 166.664 L2082.72 173.314 L2079.02 173.314 L2088.92 147.394 Z" fill="#000000" fill-rule="nonzero" fill-opacity="1" /><path clip-path="url(#clip630)" d="M2118.81 154.442 L2118.81 157.463 Q2117.46 156.769 2116 156.421 Q2114.54 156.074 2112.98 156.074 Q2110.6 156.074 2109.41 156.803 Q2108.22 157.532 2108.22 158.991 Q2108.22 160.102 2109.08 160.744 Q2109.93 161.369 2112.5 161.942 L2113.59 162.185 Q2116.99 162.914 2118.42 164.251 Q2119.86 165.571 2119.86 167.949 Q2119.86 170.657 2117.7 172.237 Q2115.57 173.817 2111.82 173.817 Q2110.26 173.817 2108.55 173.505 Q2106.87 173.209 2105 172.602 L2105 169.303 Q2106.77 170.223 2108.49 170.692 Q2110.2 171.143 2111.89 171.143 Q2114.14 171.143 2115.36 170.38 Q2116.58 169.598 2116.58 168.192 Q2116.58 166.89 2115.69 166.196 Q2114.82 165.501 2111.85 164.859 L2110.74 164.598 Q2107.77 163.973 2106.45 162.689 Q2105.13 161.387 2105.13 159.13 Q2105.13 156.387 2107.08 154.894 Q2109.02 153.4 2112.6 153.4 Q2114.37 153.4 2115.93 153.661 Q2117.5 153.921 2118.81 154.442 Z" fill="#000000" fill-rule="nonzero" fill-opacity="1" /><path clip-path="url(#clip630)" d="M2137.74 163.366 Q2137.74 159.893 2136.3 157.984 Q2134.87 156.074 2132.29 156.074 Q2129.72 156.074 2128.28 157.984 Q2126.85 159.893 2126.85 163.366 Q2126.85 166.821 2128.28 168.73 Q2129.72 170.64 2132.29 170.64 Q2134.87 170.64 2136.3 168.73 Q2137.74 166.821 2137.74 163.366 M2140.93 170.9 Q2140.93 175.866 2138.73 178.279 Q2136.52 180.709 2131.97 180.709 Q2130.29 180.709 2128.8 180.449 Q2127.3 180.206 2125.9 179.685 L2125.9 176.577 Q2127.3 177.341 2128.68 177.706 Q2130.05 178.07 2131.47 178.07 Q2134.61 178.07 2136.18 176.421 Q2137.74 174.789 2137.74 171.473 L2137.74 169.893 Q2136.75 171.612 2135.2 172.463 Q2133.66 173.314 2131.51 173.314 Q2127.93 173.314 2125.74 170.588 Q2123.55 167.862 2123.55 163.366 Q2123.55 158.852 2125.74 156.126 Q2127.93 153.4 2131.51 153.4 Q2133.66 153.4 2135.2 154.251 Q2136.75 155.102 2137.74 156.821 L2137.74 153.869 L2140.93 153.869 L2140.93 170.9 Z" fill="#000000" fill-rule="nonzero" fill-opacity="1" /><path clip-path="url(#clip630)" d="M2156.35 163.539 Q2152.48 163.539 2150.98 164.425 Q2149.49 165.31 2149.49 167.446 Q2149.49 169.147 2150.6 170.154 Q2151.73 171.143 2153.66 171.143 Q2156.31 171.143 2157.91 169.268 Q2159.53 167.376 2159.53 164.251 L2159.53 163.539 L2156.35 163.539 M2162.72 162.22 L2162.72 173.314 L2159.53 173.314 L2159.53 170.362 Q2158.43 172.133 2156.8 172.984 Q2155.17 173.817 2152.81 173.817 Q2149.82 173.817 2148.05 172.15 Q2146.3 170.466 2146.3 167.654 Q2146.3 164.373 2148.48 162.706 Q2150.69 161.039 2155.05 161.039 L2159.53 161.039 L2159.53 160.727 Q2159.53 158.522 2158.07 157.324 Q2156.63 156.109 2154.01 156.109 Q2152.34 156.109 2150.76 156.508 Q2149.18 156.907 2147.72 157.706 L2147.72 154.755 Q2149.47 154.078 2151.12 153.748 Q2152.77 153.4 2154.34 153.4 Q2158.55 153.4 2160.64 155.588 Q2162.72 157.775 2162.72 162.22 Z" fill="#000000" fill-rule="nonzero" fill-opacity="1" /><path clip-path="url(#clip630)" d="M2180.57 156.855 Q2180.03 156.543 2179.39 156.404 Q2178.76 156.248 2178 156.248 Q2175.29 156.248 2173.83 158.018 Q2172.39 159.772 2172.39 163.071 L2172.39 173.314 L2169.18 173.314 L2169.18 153.869 L2172.39 153.869 L2172.39 156.89 Q2173.4 155.119 2175.01 154.269 Q2176.63 153.4 2178.94 153.4 Q2179.27 153.4 2179.67 153.453 Q2180.06 153.487 2180.55 153.574 L2180.57 156.855 Z" fill="#000000" fill-rule="nonzero" fill-opacity="1" /><path clip-path="url(#clip630)" d="M2196.09 156.821 L2196.09 146.3 L2199.28 146.3 L2199.28 173.314 L2196.09 173.314 L2196.09 170.397 Q2195.08 172.133 2193.54 172.984 Q2192.01 173.817 2189.86 173.817 Q2186.33 173.817 2184.11 171.005 Q2181.9 168.192 2181.9 163.609 Q2181.9 159.025 2184.11 156.213 Q2186.33 153.4 2189.86 153.4 Q2192.01 153.4 2193.54 154.251 Q2195.08 155.084 2196.09 156.821 M2185.2 163.609 Q2185.2 167.133 2186.64 169.147 Q2188.1 171.143 2190.64 171.143 Q2193.17 171.143 2194.63 169.147 Q2196.09 167.133 2196.09 163.609 Q2196.09 160.084 2194.63 158.088 Q2193.17 156.074 2190.64 156.074 Q2188.1 156.074 2186.64 158.088 Q2185.2 160.084 2185.2 163.609 Z" fill="#000000" fill-rule="nonzero" fill-opacity="1" /><path clip-path="url(#clip630)" d="M2220.64 179.216 L2220.64 181.699 L2202.17 181.699 L2202.17 179.216 L2220.64 179.216 Z" fill="#000000" fill-rule="nonzero" fill-opacity="1" /><path clip-path="url(#clip630)" d="M2227.29 160.935 L2227.29 170.432 L2232.91 170.432 Q2235.74 170.432 2237.1 169.268 Q2238.47 168.088 2238.47 165.675 Q2238.47 163.244 2237.1 162.098 Q2235.74 160.935 2232.91 160.935 L2227.29 160.935 M2227.29 150.275 L2227.29 158.088 L2232.48 158.088 Q2235.05 158.088 2236.3 157.133 Q2237.56 156.161 2237.56 154.182 Q2237.56 152.22 2236.3 151.248 Q2235.05 150.275 2232.48 150.275 L2227.29 150.275 M2223.78 147.394 L2232.74 147.394 Q2236.75 147.394 2238.92 149.06 Q2241.09 150.727 2241.09 153.8 Q2241.09 156.178 2239.98 157.584 Q2238.87 158.991 2236.71 159.338 Q2239.3 159.893 2240.72 161.664 Q2242.16 163.418 2242.16 166.057 Q2242.16 169.529 2239.8 171.421 Q2237.44 173.314 2233.09 173.314 L2223.78 173.314 L2223.78 147.394 Z" fill="#000000" fill-rule="nonzero" fill-opacity="1" /><path clip-path="url(#clip630)" d="M2256.87 163.539 Q2253 163.539 2251.51 164.425 Q2250.01 165.31 2250.01 167.446 Q2250.01 169.147 2251.12 170.154 Q2252.25 171.143 2254.18 171.143 Q2256.83 171.143 2258.43 169.268 Q2260.05 167.376 2260.05 164.251 L2260.05 163.539 L2256.87 163.539 M2263.24 162.22 L2263.24 173.314 L2260.05 173.314 L2260.05 170.362 Q2258.95 172.133 2257.32 172.984 Q2255.69 173.817 2253.33 173.817 Q2250.34 173.817 2248.57 172.15 Q2246.82 170.466 2246.82 167.654 Q2246.82 164.373 2249.01 162.706 Q2251.21 161.039 2255.57 161.039 L2260.05 161.039 L2260.05 160.727 Q2260.05 158.522 2258.59 157.324 Q2257.15 156.109 2254.53 156.109 Q2252.86 156.109 2251.28 156.508 Q2249.7 156.907 2248.24 157.706 L2248.24 154.755 Q2249.99 154.078 2251.64 153.748 Q2253.29 153.4 2254.86 153.4 Q2259.07 153.4 2261.16 155.588 Q2263.24 157.775 2263.24 162.22 Z" fill="#000000" fill-rule="nonzero" fill-opacity="1" /><path clip-path="url(#clip630)" d="M2272.98 148.348 L2272.98 153.869 L2279.56 153.869 L2279.56 156.352 L2272.98 156.352 L2272.98 166.907 Q2272.98 169.286 2273.62 169.963 Q2274.28 170.64 2276.28 170.64 L2279.56 170.64 L2279.56 173.314 L2276.28 173.314 Q2272.58 173.314 2271.18 171.942 Q2269.77 170.553 2269.77 166.907 L2269.77 156.352 L2267.43 156.352 L2267.43 153.869 L2269.77 153.869 L2269.77 148.348 L2272.98 148.348 Z" fill="#000000" fill-rule="nonzero" fill-opacity="1" /><path clip-path="url(#clip630)" d="M2286.92 148.348 L2286.92 153.869 L2293.5 153.869 L2293.5 156.352 L2286.92 156.352 L2286.92 166.907 Q2286.92 169.286 2287.56 169.963 Q2288.22 170.64 2290.22 170.64 L2293.5 170.64 L2293.5 173.314 L2290.22 173.314 Q2286.52 173.314 2285.12 171.942 Q2283.71 170.553 2283.71 166.907 L2283.71 156.352 L2281.37 156.352 L2281.37 153.869 L2283.71 153.869 L2283.71 148.348 L2286.92 148.348 Z" fill="#000000" fill-rule="nonzero" fill-opacity="1" /><path clip-path="url(#clip630)" d="M2314.33 162.793 L2314.33 164.355 L2299.65 164.355 Q2299.86 167.654 2301.63 169.39 Q2303.41 171.109 2306.59 171.109 Q2308.43 171.109 2310.15 170.657 Q2311.89 170.206 2313.59 169.303 L2313.59 172.324 Q2311.87 173.053 2310.06 173.435 Q2308.26 173.817 2306.4 173.817 Q2301.75 173.817 2299.02 171.109 Q2296.31 168.4 2296.31 163.782 Q2296.31 159.008 2298.88 156.213 Q2301.47 153.4 2305.85 153.4 Q2309.77 153.4 2312.04 155.935 Q2314.33 158.453 2314.33 162.793 M2311.14 161.855 Q2311.11 159.234 2309.66 157.671 Q2308.24 156.109 2305.88 156.109 Q2303.21 156.109 2301.59 157.619 Q2299.99 159.13 2299.75 161.873 L2311.14 161.855 Z" fill="#000000" fill-rule="nonzero" fill-opacity="1" /><path clip-path="url(#clip630)" d="M2330.84 156.855 Q2330.31 156.543 2329.66 156.404 Q2329.04 156.248 2328.28 156.248 Q2325.57 156.248 2324.11 158.018 Q2322.67 159.772 2322.67 163.071 L2322.67 173.314 L2319.46 173.314 L2319.46 153.869 L2322.67 153.869 L2322.67 156.89 Q2323.67 155.119 2325.29 154.269 Q2326.9 153.4 2329.21 153.4 Q2329.54 153.4 2329.94 153.453 Q2330.34 153.487 2330.83 153.574 L2330.84 156.855 Z" fill="#000000" fill-rule="nonzero" fill-opacity="1" /><path clip-path="url(#clip630)" d="M2342.29 175.119 Q2340.93 178.591 2339.65 179.65 Q2338.36 180.709 2336.21 180.709 L2333.66 180.709 L2333.66 178.036 L2335.53 178.036 Q2336.85 178.036 2337.58 177.411 Q2338.31 176.786 2339.2 174.459 L2339.77 173.001 L2331.9 153.869 L2335.29 153.869 L2341.37 169.077 L2347.44 153.869 L2350.83 153.869 L2342.29 175.119 Z" fill="#000000" fill-rule="nonzero" fill-opacity="1" /><path clip-path="url(#clip630)" d="M2370.01 170.362 L2382.25 170.362 L2382.25 173.314 L2365.79 173.314 L2365.79 170.362 Q2367.79 168.296 2371.23 164.824 Q2374.68 161.334 2375.57 160.328 Q2377.25 158.435 2377.91 157.133 Q2378.59 155.814 2378.59 154.546 Q2378.59 152.48 2377.13 151.178 Q2375.69 149.876 2373.36 149.876 Q2371.71 149.876 2369.87 150.449 Q2368.05 151.022 2365.97 152.185 L2365.97 148.644 Q2368.08 147.793 2369.92 147.359 Q2371.76 146.925 2373.29 146.925 Q2377.32 146.925 2379.72 148.939 Q2382.11 150.953 2382.11 154.321 Q2382.11 155.918 2381.5 157.359 Q2380.91 158.782 2379.33 160.727 Q2378.9 161.23 2376.57 163.643 Q2374.25 166.039 2370.01 170.362 Z" fill="#000000" fill-rule="nonzero" fill-opacity="1" /></svg>
